<svg width="634" height="641" viewBox="0 0 634 641" fill="none" xmlns="http://www.w3.org/2000/svg">
<path fill-rule="evenodd" clip-rule="evenodd" d="M121.486 251.496C120.903 244.066 118.175 232.171 108.466 232.727C100.365 233.191 93.41 245.876 94.9102 253.285C95.9989 258.663 97.7486 255.608 99.2305 253.023C99.4243 252.685 99.6135 252.354 99.7963 252.052C101.658 248.968 105.027 245.239 109.027 246.029C112.471 246.711 113.927 250.115 115.251 253.21C115.637 254.11 116.011 254.984 116.418 255.757C119.554 261.695 120.642 255.952 121.37 252.102C121.41 251.894 121.449 251.691 121.486 251.496ZM81.1878 273.279C74.2915 275.781 81.7967 284.173 85.0602 285.992C84.4276 287.816 81.5434 289.467 79.3732 290.71L79.3723 290.711C78.78 291.05 78.2415 291.358 77.8155 291.631C75.2486 293.28 71.9695 294.285 68.9574 295.207L68.5981 295.317L68.2983 295.409C59.7994 298.024 51.5391 298.404 42.7678 297.122C34.3393 295.891 24.6877 293.147 19.2503 286.238C16.8982 283.251 14.7362 278.703 16.9924 274.962C18.0455 273.215 19.9003 272.311 21.788 271.391C23.5441 270.534 25.3285 269.665 26.5197 268.09C27.0764 267.354 27.4832 266.492 27.8836 265.642C28.2502 264.865 28.6112 264.097 29.0802 263.445C29.2448 263.216 29.3855 263.014 29.5089 262.838C29.956 262.198 30.1754 261.885 30.4743 261.754C30.7613 261.628 31.1215 261.67 31.8281 261.751C32.149 261.789 32.5421 261.833 33.0312 261.875C37.8853 262.287 43.0613 262.599 47.8404 261.43C49.89 260.929 51.9084 260.179 53.9168 259.433C55.4297 258.871 56.9363 258.311 58.4464 257.861C62.1771 256.749 65.7149 254.41 68.5999 251.89C75.255 246.075 81.7701 239.757 87.9324 233.42C91.3157 229.94 94.0271 225.91 96.7431 221.873C98.9443 218.601 101.148 215.325 103.716 212.334C105.026 210.808 106.326 209.196 107.645 207.562C112.869 201.088 118.385 194.25 125.99 190.923C130.301 189.038 131.154 190.209 132.774 192.432H132.775C133.211 193.031 133.704 193.706 134.336 194.419C136.854 197.262 140.347 196.779 143.751 196.306C144.476 196.205 145.198 196.106 145.904 196.038C145.562 196.817 145.19 197.607 144.812 198.407C143.308 201.594 141.727 204.946 141.654 208.419C141.63 209.574 141.936 210.662 142.24 211.738C142.528 212.763 142.814 213.777 142.807 214.827C142.798 216.246 142.028 217.602 141.273 218.934C140.893 219.603 140.516 220.268 140.242 220.93C136.555 229.814 135.664 241.852 135.526 251.392C135.242 271.128 141.15 292.151 153.716 307.626C156.367 310.891 159.348 313.908 162.68 316.485C163.3 316.964 164.685 317.669 166.254 318.467H166.255C169.272 320.002 172.971 321.884 173.227 323.178C173.844 326.275 168.29 326.604 164.939 326.802H164.938C164.17 326.848 163.518 326.886 163.082 326.95C160.818 327.28 158.565 327.677 156.314 328.073H156.313H156.312V328.074H156.311C153.674 328.537 151.035 329.002 148.379 329.359C128.644 332.013 109.163 334.133 89.2671 333.06C88.4663 333.018 87.4114 333.135 86.2943 333.26C84.3398 333.478 82.1925 333.718 80.8688 333.157C78.9189 332.332 79.0551 330.854 79.2197 329.067C79.2617 328.614 79.3056 328.141 79.3175 327.654C79.429 323.102 78.9765 318.603 78.5231 314.095C78.3613 312.482 78.1985 310.868 78.0614 309.25C77.7305 305.33 78.3686 304.915 80.4401 303.564C80.9949 303.202 81.6531 302.774 82.4219 302.193C86.1892 299.349 89.8723 294.069 91.1018 289.544C93.3643 291.369 93.1084 292.649 92.7765 294.302C92.5946 295.21 92.3908 296.23 92.5672 297.515C93.176 301.936 96.1653 301.211 98.1371 298.252C101.196 293.661 100.925 286.405 98.0667 281.817C95.5062 277.709 86.3702 271.4 81.1878 273.279ZM238.922 436.267H238.923C240.802 437.779 242.678 439.289 244.59 440.762C246.517 442.248 247.974 443.72 249.407 445.657C249.509 445.796 249.607 445.926 249.699 446.051C251.21 448.081 251.381 448.31 250.217 450.651C248.939 453.215 247.067 455.254 245.201 457.287C243.839 458.772 242.479 460.254 241.356 461.935C240.375 463.403 239.506 464.927 238.642 466.445L238.642 466.446C236.831 469.625 235.035 472.78 232.245 475.344C230.401 471.186 228.019 477.263 231.081 476.622C230.193 479.255 228.621 481.644 227.048 484.033C226.102 485.471 225.156 486.908 224.359 488.399C221.851 493.088 219.11 497.348 216.141 501.757L216.05 501.426C215.969 501.133 215.887 500.84 215.807 500.547L215.595 499.783C215.475 499.349 215.354 498.914 215.234 498.48C213.032 499.007 213.855 500.363 214.463 501.367C214.652 501.679 214.821 501.957 214.872 502.164C214.925 502.385 215.018 502.548 215.111 502.709C215.33 503.09 215.545 503.466 215.232 504.602C214.993 505.462 214.34 506.231 213.715 506.965C213.458 507.268 213.206 507.564 212.99 507.858C211.541 509.838 210.178 511.867 208.811 513.901C208.611 514.199 208.41 514.497 208.21 514.795C207.085 516.466 206.493 517.925 205.869 519.46C205.637 520.033 205.4 520.617 205.129 521.227C204.582 522.458 204.063 522.789 203.41 523.204C203.002 523.464 202.542 523.756 201.99 524.324C201.055 525.287 200.123 526.7 199.231 528.053C198.71 528.841 198.203 529.609 197.718 530.255C193.792 535.476 190.265 541.454 187.586 547.393C186.421 549.977 184.805 552.21 183.187 554.445C181.261 557.109 179.332 559.775 178.16 563.039C177.544 564.753 177.146 566.515 176.749 568.277C176.435 569.668 176.121 571.059 175.699 572.427C175.355 573.543 174.925 574.629 174.495 575.715C173.812 577.442 173.129 579.168 172.79 581.012C172.517 582.487 172.51 584.101 172.503 585.626C172.498 586.677 172.493 587.685 172.403 588.577C172.348 589.116 172.241 589.742 172.126 590.422L172.125 590.423C171.857 591.997 171.54 593.863 171.694 595.62C172.163 600.923 174.363 605.525 176.989 609.943C165.009 614.003 151.379 615.143 138.811 614.849C132.387 614.697 125.066 614.637 118.781 616.123C118.025 616.302 117.305 616.49 116.605 616.673C113.94 617.368 111.56 617.99 108.536 617.753C106.004 617.555 103.475 617.33 100.945 617.105C99.662 616.992 98.3803 616.878 97.0977 616.767C98.0704 614.807 100.968 612.403 103.046 610.679C103.346 610.43 103.628 610.195 103.886 609.978C104.454 609.499 105.201 609.196 105.922 608.902C106.696 608.589 107.441 608.286 107.908 607.79C108.683 606.964 109.054 605.213 109.346 603.832C109.443 603.375 109.531 602.958 109.623 602.63C112.45 592.484 114.538 582.247 116.309 571.868C119.438 553.53 120.651 534.86 121.806 516.408C121.844 515.804 121.998 515.144 122.153 514.485C122.338 513.693 122.523 512.903 122.505 512.215C122.483 511.376 122.402 510.688 122.324 510.033C122.213 509.1 122.11 508.235 122.201 507.095C122.249 506.503 122.614 505.815 122.972 505.14C123.358 504.415 123.734 503.704 123.701 503.142C123.677 502.715 123.336 502.625 122.967 502.527C122.512 502.405 122.015 502.274 122.016 501.483C122.018 500.254 123.066 498.704 124.042 497.262C124.702 496.285 125.328 495.359 125.575 494.614C125.713 494.197 125.475 493.697 125.234 493.194C125.033 492.777 124.832 492.357 124.845 491.98C124.836 492.236 125.531 489.107 125.558 488.985C125.648 488.595 125.847 488.317 126.045 488.04C126.321 487.655 126.596 487.272 126.571 486.592C126.557 486.213 126.341 485.792 126.118 485.357C125.746 484.633 125.356 483.875 125.855 483.221C126.121 482.872 126.729 482.966 127.335 483.06C127.971 483.159 128.605 483.257 128.834 482.84C129.126 482.31 128.62 481.132 128.087 479.887C127.566 478.673 127.019 477.396 127.157 476.596C127.399 475.203 128.038 473.8 128.682 472.387C129.258 471.123 129.837 469.851 130.14 468.571C130.233 468.173 130.262 467.702 130.292 467.212C130.353 466.215 130.418 465.145 131.047 464.475C131.938 463.527 132.761 463.697 133.73 463.896C134.424 464.039 135.193 464.198 136.115 463.97C133.863 462.059 133.427 460.385 134.092 457.595C134.612 455.418 135.648 453 138.029 455.175C137.673 451.924 137.686 451.417 140.113 448.954C140.512 448.55 140.921 448.052 141.343 447.539C142.165 446.538 143.036 445.479 143.966 444.945C144.392 444.498 144.819 444.05 145.245 443.603C145.822 444.204 146.509 444.545 147.303 444.623C148.593 444.554 149.76 444.449 150.848 444.35C155.5 443.93 158.693 443.641 163.761 446.948C164.466 447.409 165.171 447.84 165.869 448.265C167.777 449.428 169.631 450.558 171.291 452.2C172.358 453.255 173.337 454.389 174.317 455.523C175.658 457.075 177 458.629 178.565 459.979C179.431 460.726 180.293 461.434 181.146 462.135C183.277 463.887 185.352 465.593 187.28 467.733C187.634 468.125 187.986 468.525 188.338 468.928C190.214 471.066 192.134 473.255 194.652 474.528C194.862 471.228 193.216 468.249 191.617 465.354C191.48 465.105 191.343 464.858 191.209 464.612C191.003 464.237 189.512 463.229 189.545 463.341C189.455 463.027 189.581 462.735 189.703 462.451C189.826 462.168 189.944 461.894 189.838 461.615C190.721 462.413 191.613 463.343 192.524 464.292C194.29 466.13 196.122 468.038 198.081 469.196C202.575 471.854 201.052 467.239 200.068 464.262V464.261C199.99 464.027 199.917 463.804 199.849 463.595C197.213 455.397 192.437 447.541 186.914 440.924C177.252 429.35 161.133 416.428 145.708 423.712C130.42 430.933 122.366 443.061 117.979 459.192C112.889 477.916 110.551 495.807 110.068 515.203C109.79 526.307 108.657 537.32 107.49 548.362C107.155 551.53 106.878 554.775 106.599 558.048V558.049C105.928 565.907 105.245 573.921 103.71 581.389C102.345 579.403 101.541 577.904 100.859 575.673C100.74 575.283 100.737 574.896 100.734 574.51C100.73 574.005 100.726 573.502 100.458 572.998C100.347 572.789 100.002 572.7 99.6656 572.613C99.3447 572.53 99.0303 572.449 98.9297 572.268L98.7341 571.914C97.0575 568.894 94.827 564.874 94.0783 561.491C93.9165 560.76 93.8772 560.149 93.8397 559.574C93.7821 558.691 93.73 557.892 93.2501 556.871C92.9063 556.142 92.6412 556.068 92.4273 556.009C92.1778 555.939 91.9986 555.889 91.8459 554.838C91.8341 554.756 91.941 554.658 92.0845 554.526C92.4136 554.222 92.9383 553.739 92.6705 552.858C91.9776 550.584 91.43 551.467 91.004 552.155C90.8321 552.432 90.6795 552.677 90.546 552.672C89.9637 552.647 90.5296 550.239 91.0296 548.114C91.355 546.728 91.6531 545.463 91.5854 545.057C91.4766 544.409 91.2627 544.31 91.0461 544.211C90.8687 544.129 90.6895 544.047 90.5679 543.658C90.3266 542.88 90.0304 541.754 89.8485 540.674C89.6182 539.3 89.2671 538.312 88.9316 537.368C88.4626 536.05 88.0248 534.818 87.9919 532.74C87.9507 530.124 87.3456 528.075 86.7166 525.947C86.3107 524.575 85.8957 523.17 85.616 521.558C85.5483 521.175 85.7284 520.767 85.9021 520.372C86.0712 519.987 86.2349 519.615 86.1608 519.289C86.0027 518.583 85.6635 517.94 85.318 517.283C84.9889 516.657 84.6534 516.021 84.4641 515.31C84.0025 513.577 84.3279 511.979 84.6525 510.385C84.8984 509.176 85.1443 507.967 85.0465 506.702C85.0839 507.183 84.136 504.543 84.0765 504.31C83.8919 503.584 83.8499 502.725 83.8078 501.857C83.7712 501.122 83.7346 500.381 83.6112 499.71C83.5491 499.377 83.4522 499.017 83.3525 498.644C83.0408 497.483 82.6962 496.199 83.2684 495.229C83.5235 494.797 83.9349 494.636 84.3673 494.467C84.8125 494.292 85.2796 494.109 85.6224 493.614C85.0538 493.431 84.6424 493.335 84.3353 493.264C83.9678 493.179 83.7502 493.129 83.5911 493.003C83.3617 492.822 83.2538 492.484 82.9915 491.658C82.9266 491.453 82.8516 491.218 82.7629 490.947C81.9064 488.331 81.8232 486.139 84.6607 487.869C84.4322 487.307 84.1424 486.706 83.8425 486.085C83.2008 484.754 82.517 483.337 82.3186 482.047C82.1788 481.142 82.2876 480.252 82.3963 479.362C82.4942 478.554 82.5929 477.747 82.506 476.93C82.3982 475.908 82.2446 474.974 82.0983 474.092C81.5882 471.001 81.1814 468.533 83.2182 465.059C80.7682 463.806 80.8121 460.344 80.8514 457.247C80.867 455.985 80.8825 454.782 80.728 453.815C80.6229 453.158 80.4912 452.506 80.3605 451.867V451.866C79.7736 448.969 79.2306 446.292 81.4584 444.343C78.7598 442.404 79.2453 437.063 79.6155 432.991C79.7188 431.858 79.8129 430.822 79.8267 429.986C79.8568 428.15 79.8011 426.3 79.7426 424.377V424.376C79.6841 422.454 79.6228 420.456 79.6447 418.324C79.6639 416.514 79.2855 415.128 78.8522 413.54C78.7086 413.013 78.5587 412.464 78.4152 411.87C77.9727 410.039 78.0623 408.461 78.1528 406.855C78.215 405.768 78.2772 404.666 78.1748 403.465C78.0815 402.375 77.8411 401.284 77.5979 400.177C77.3136 398.883 77.0248 397.57 76.9599 396.215C76.9142 395.266 76.9142 394.274 76.9151 393.273C76.9151 391.567 76.916 389.836 76.6874 388.247C76.5841 387.527 76.4562 386.877 76.3318 386.241C76.096 385.037 75.8702 383.887 75.8355 382.413C75.83 382.159 75.7797 381.828 75.7267 381.481C75.6398 380.915 75.5466 380.308 75.6316 379.923C75.6316 379.925 75.6408 379.904 75.6581 379.867V379.866C75.809 379.533 76.5613 377.872 76.5558 378.732C76.5659 377.348 76.3035 375.975 76.0338 374.56C75.606 372.327 75.159 369.987 75.7322 367.324C76.405 364.208 76.9827 364.255 79.5113 364.465H79.5122H79.514C79.8833 364.496 80.2938 364.53 80.7527 364.559L81.314 364.593C83.9696 364.757 86.6243 364.921 89.2854 364.932C90.3284 364.935 92.0251 364.734 93.9823 364.502C98.9489 363.912 105.596 363.122 107.512 364.988C109.144 366.578 108.871 372.546 108.677 376.803C108.608 378.314 108.549 379.608 108.589 380.415C108.723 383.182 107.322 384.887 105.814 386.722C104.591 388.211 103.298 389.785 102.702 392.078C100.167 401.837 104.356 414.718 115.79 415.552C126.456 416.331 136.687 407.561 135.222 396.782C134.635 392.457 132.642 387.749 128.88 385.217C127.17 384.067 124.555 383.864 122.001 383.666C119.122 383.444 116.319 383.227 114.976 381.663C114.105 380.648 114.13 377.472 114.149 375.153C114.156 374.326 114.161 373.608 114.126 373.136C114.083 372.574 113.994 371.892 113.898 371.154C113.546 368.459 113.099 365.027 114.451 364.056C116.396 362.656 122.403 362.629 124.623 362.623L124.812 362.622C127.885 362.615 130.696 362.608 133.754 362.09C136.75 361.583 139.742 361.304 142.724 361.027V361.026C146.618 360.664 150.495 360.303 154.339 359.437C161.078 357.917 167.305 356.329 173.653 353.614C174.66 360.378 176.845 366.508 179.061 372.727V372.727V372.728C179.711 374.552 180.363 376.382 180.99 378.24C182.295 382.111 184.331 386.057 186.33 389.614C186.578 390.055 186.838 390.613 187.114 391.203V391.204C188.279 393.696 189.719 396.778 191.638 394.193C191.82 394.965 191.807 395.555 191.795 396.118C191.78 396.773 191.767 397.393 192.062 398.222C192.617 399.786 194.842 401.627 196.697 403.16V403.16C197.424 403.761 198.094 404.316 198.585 404.788C199.756 405.916 201.009 406.86 202.274 407.813L202.275 407.814C202.823 408.227 203.374 408.641 203.92 409.073C204.091 409.208 204.35 409.225 204.605 409.243C204.884 409.262 205.158 409.281 205.31 409.452C205.635 409.822 205.58 410.28 205.536 410.646C205.507 410.887 205.482 411.088 205.573 411.201C207.639 413.797 210.812 415.844 213.808 417.777C214.921 418.495 216.009 419.197 217.006 419.906C222.272 423.645 227.512 427.382 232.643 431.3C234.771 432.925 236.847 434.596 238.921 436.266H238.922V436.267ZM160.803 299.394C164.684 303.866 170.694 310.693 176.707 312.041C182.587 313.36 191.818 311.529 197.066 308.641C196.835 307.323 198.127 305.035 199.331 302.901C200.064 301.602 200.765 300.36 201.072 299.429C201.367 298.529 201.416 297.831 201.467 297.131C201.502 296.623 201.539 296.116 201.669 295.531C201.776 295.051 201.968 294.799 202.144 294.568C202.392 294.244 202.607 293.964 202.5 293.152C202.319 291.752 201.307 290.987 200.317 290.238C199.561 289.666 198.816 289.103 198.467 288.274C198.323 287.934 198.484 286.718 198.615 285.717C198.686 285.181 198.749 284.706 198.752 284.461C198.782 282.497 198.607 281.246 197.612 279.56C196.036 276.886 193.666 274.716 191.33 272.576C190.075 271.427 188.83 270.287 187.723 269.082C186.756 268.029 186.178 266.93 185.573 265.779C185.272 265.207 184.965 264.623 184.6 264.026C184.211 263.388 183.703 262.811 183.202 262.239C182.531 261.476 181.87 260.724 181.519 259.859C181.221 259.126 181.135 258.252 181.048 257.37C180.969 256.57 180.889 255.762 180.65 255.047C180.197 253.692 179.496 252.474 178.795 251.257C178.266 250.342 177.739 249.426 177.316 248.45C175.309 243.814 174.791 238.295 174.313 233.221C174.267 232.728 174.221 232.239 174.175 231.755L173.891 231.821C167.849 233.231 162.04 234.586 158.697 227.879C158.266 227.013 158.185 225.245 158.108 223.55C158.028 221.773 157.95 220.077 157.477 219.58C156.826 218.899 150.31 219.331 149.567 219.944C146.894 222.155 146.914 229.738 146.928 234.657V234.658C146.931 235.851 146.934 236.887 146.898 237.651C146.787 239.99 146.609 242.334 146.431 244.679C146.079 249.312 145.726 253.953 145.893 258.58C146.391 272.313 151.695 288.896 160.803 299.394ZM266.28 388.347C267.23 393.1 268.184 397.876 269.442 402.537C269.971 404.498 270.216 406.431 270.461 408.364C270.776 410.845 271.09 413.323 272.004 415.856C271.915 416.433 271.861 417.097 271.803 417.797C271.585 420.485 271.322 423.715 268.877 424.668C266.091 425.752 264.28 423.104 263.244 420.809C261.413 416.746 261.167 411.793 260.929 406.984C260.803 404.456 260.68 401.968 260.328 399.67C259.648 395.22 259.331 390.808 259.012 386.388C258.767 382.992 258.522 379.593 258.112 376.169C257.87 374.144 257.458 371.963 257.036 369.721C256.01 364.274 254.913 358.461 255.996 353.614C257.033 353.589 258.953 359.937 260.205 364.073C260.645 365.529 261.003 366.712 261.209 367.246C263.005 371.874 263.924 376.535 264.871 381.336C265.071 382.346 265.271 383.363 265.481 384.387C265.752 385.703 266.016 387.024 266.28 388.347Z" fill="#FF5678"/>
<path fill-rule="evenodd" clip-rule="evenodd" d="M596.865 611.765C592.641 613.076 588.681 615.007 584.61 616.732C579.989 618.691 576.764 619.035 571.718 619.027C552.184 618.997 532.852 620 513.282 620.395C507.937 620.503 502.511 620.556 497.166 620.459C495.007 620.42 492.89 620.175 490.743 619.997C489.354 619.883 483.304 620.715 482.496 620.229C480.227 618.864 481.575 610.073 481.3 607.257C480.821 602.366 479.582 597.653 477.857 593.057C471.686 576.617 461.31 560.577 448.189 548.843C465.93 541.392 485.284 531.569 504.972 535.989C512.471 537.672 522.409 539.875 526.271 547.129C530.392 554.874 534.003 563.39 538.714 570.805C543.98 579.091 549.57 586.191 557.193 592.407C560.201 594.859 575.359 609.926 573.056 598.296C572.318 594.565 569.59 591.097 567.41 588.052C566.302 586.502 560.327 581.421 561.257 579.626C562.301 577.613 573.075 576.194 575.384 575.553C580.154 574.231 584.898 572.82 589.649 571.432C587.931 574.67 578.585 586.922 584.556 590.053C586.75 591.204 592.424 587.128 594.828 586.412C598.924 585.194 602.667 585.997 606.693 587.203C606.589 589.18 602.707 589.205 601.416 590.555C599.528 592.531 598.203 597.858 599.682 600.224C602.44 604.634 613.111 600.134 617.884 601.808C612.52 607.343 604.104 609.518 596.865 611.765ZM330.312 429.739C330.368 429.853 330.266 430.012 329.624 430.569C329.429 429.866 329.08 429.711 328.652 429.905C328.996 429.529 329.281 429.332 329.624 430.569C329.895 430.334 330.12 430.043 330.312 429.739ZM331.944 427.417C331.816 427.841 331.524 428.039 331.08 428.028C331.103 427.955 331.125 427.886 331.142 427.832C331.437 426.908 331.831 427.066 331.7 425.366C331.877 425.65 332.011 425.937 331.913 426.223C332.194 426.654 332.203 427.052 331.944 427.417ZM284.462 507.204C284.912 506.116 285.031 504.852 285.613 503.851C285.043 504.865 285.034 506.117 284.462 507.204ZM467.993 619.536C460.922 619.253 454.031 619.38 446.962 619.687C431.858 620.345 416.686 620.442 401.609 621.653C394.235 622.246 387.146 622.472 379.748 622.224C373.282 622.007 366.791 622.237 360.344 621.695C353.264 621.1 346.637 619.143 339.492 619.037C332.661 618.935 324.526 618.145 317.9 619.143C316.756 619.315 316.14 620.044 314.79 620.22C312.926 620.463 310.301 619.703 308.392 619.574C305.042 619.348 301.338 619.72 298.069 618.938C296.946 618.671 296.16 618.259 295.071 617.819C294.089 617.423 291.885 617.118 291.345 616.976C294.461 615.815 287.55 613.448 286.993 613.319C286.853 613.79 287.163 614.451 287.674 615.091C285.905 613.735 287.799 614.236 284.907 612.861C283.691 612.282 281.392 611.91 280.029 611.756C278.717 611.609 278.009 611.765 277.412 611.731C277.532 611.597 277.651 611.418 277.766 611.18C278.732 609.189 275.791 606.915 274.138 608.253C274.329 608.642 274.639 609.361 275.014 610.067C274.997 610.048 274.983 610.033 274.966 610.013C274.354 609.306 273.201 607.496 272.054 606.278C273.508 605.475 271.729 604.384 271.058 603.264C270.599 603.516 270.09 603.73 269.827 604.081C270.209 603.283 271.156 602.561 270.6 601.01C270.442 600.566 270.022 599.898 269.495 599.429C269.995 599.819 270.516 600.255 271.19 600.161C270.347 598.885 270.038 598.404 269.716 597.125C269.49 596.225 270.75 595.355 269.554 594.541C269.59 593.692 270.095 589.794 267.978 591.154C267.978 591.154 267.978 591.154 267.977 591.155C267.978 591.153 267.978 591.151 267.978 591.151C269.333 587.006 271.639 582.727 273.351 578.674C277.341 569.237 281.443 559.729 285.619 550.375C292.523 534.9 299.732 519.464 307.677 504.406C315.553 489.477 324.151 475.038 331.585 459.904C338.755 445.303 347.119 431.332 354.339 416.754C357.741 409.888 362.298 404.21 363.458 396.232C363.833 393.648 363.952 388.26 360.041 389.23C357.499 389.859 353.941 396.224 352.3 398.293C350.83 396.276 342.538 384.417 340.314 391.482C338.406 397.54 350.348 400.178 345.584 406.28C345.111 406.886 343.154 407.496 342.511 408.056C341.261 409.144 340.116 411.065 339.15 412.378C336.948 415.372 335.126 418.553 333.09 421.649C332.708 422.232 331.307 423.55 331.199 424.232C331.143 424.594 331.446 424.966 331.684 425.342C330.027 426.808 327.939 428.103 327.551 430.477C327.665 430.527 327.771 430.536 327.873 430.516C326.333 432.126 324.384 436.029 324.106 436.436C322.031 439.453 319.996 442.61 317.946 445.793C316.838 447.514 314.9 449.538 314.265 451.472C314.044 452.14 314.689 453.338 314.087 453.964C312.507 455.61 310.962 455.26 309.779 458.569C309.315 459.872 309.273 461.694 308.525 462.812C307.325 464.604 305.611 465.449 304.49 467.378C302.364 471.038 299.817 475.057 298.477 478.75C298.473 478.766 298.472 478.779 298.465 478.795C298.42 478.505 298.357 478.191 298.283 477.849C297.523 479.212 296.765 480.575 296.007 481.939C297.319 481.683 298.021 481.326 298.341 480.743C298.304 480.938 298.242 481.14 298.122 481.353C297.451 481.662 296.745 481.856 296.007 481.939C295.498 482.779 295.023 483.636 294.579 484.51C294.361 484.952 293.63 487.649 293.322 489.691C293.208 488.899 293.095 488.188 293.082 488.093C292.12 489.946 291.158 491.798 290.195 493.649C291.941 492.307 291.843 492.079 293.505 492.046C291.41 492.088 288.239 495.031 287.948 497.858C287.901 498.317 288.182 498.82 288.431 499.295C288.373 499.286 288.317 499.279 288.25 499.274C286.056 499.087 286.698 499.53 285.866 501.358C286.183 501.231 288.03 500.51 288.725 499.948C288.8 500.189 288.813 500.409 288.696 500.596C288.152 501.46 283.708 500.903 286.562 502.821C284.191 501.227 283.006 506.459 283.813 508.257C283.174 509.178 282.414 510.028 281.699 510.881C279.941 512.977 278.97 514.566 277.818 517.119C275.858 521.465 273.519 525.779 271.376 530.041C270.563 531.662 269.614 533.042 268.617 534.547C266.846 537.217 267.158 536.551 268.553 539.46C268.03 539.29 267.254 539.702 266.505 540.301C266.913 539.609 267.432 539.095 268.553 539.46C266.782 535.769 265.261 540.267 264.445 542.381C264.482 542.381 264.512 542.371 264.546 542.37C264.435 542.534 264.351 542.68 264.3 542.796C263.467 544.512 262.485 545.564 263.196 547.363C263.4 546.362 264.212 545.587 264.557 544.727C264.071 546.825 261.782 549.339 261.091 550.729C260.517 551.883 260.436 553.094 259.73 554.35C259.068 555.53 258.471 556.324 257.962 557.673C255.501 564.197 254.303 571.463 252.751 578.315C250.915 586.412 250.159 595.016 249.766 603.302C249.652 605.711 249.588 607.84 250.456 610.127C250.582 610.459 251.933 612.224 251.899 612.869C251.711 616.24 245.38 615.539 242.944 615.442C239.073 615.287 236.437 615.912 232.719 616.451C229.288 616.946 225.921 616.675 222.437 617.517C216.652 618.914 208.036 621.129 202.441 618.058C199.736 616.573 196.33 612.268 194.367 609.852C191.951 606.879 191.138 603.852 190.705 600.064C189.967 593.585 189.916 586.426 192.169 580.235C202.635 551.463 220.59 525.308 236.075 499.124C250.605 474.553 266.894 451.264 281.454 426.759C289.151 413.806 298.411 400.99 307.566 389.018C316.923 376.783 323.6 363.469 330.198 349.618C337.035 353.245 344.274 356.974 351.921 358.613C356.267 359.544 360.584 359.262 364.968 359.563C368.199 359.784 370.902 360.547 374.193 360.631C388.622 360.999 405.294 359.27 419.087 355.008C422.396 353.985 425.355 352.925 428.458 351.451C432.418 349.571 433.489 348.773 433.714 353.144C434.149 361.607 435.53 369.833 436.18 378.246C436.814 386.447 438.466 394.534 439.927 402.636C440.667 406.739 441.464 410.839 442.071 414.964C442.531 418.094 443.921 422.447 443.369 425.576C442.76 429.03 439.487 432.535 437.614 435.482C435.714 438.472 433.803 441.456 431.908 444.449C428.353 450.064 424.814 455.391 420.616 460.541C412.835 470.09 406.209 480.075 398.83 489.936C390.995 500.407 384.483 511.717 376.793 522.295C372.731 527.883 368.577 533.153 365.915 539.446C363.707 544.666 359.263 549.468 356.546 554.634C352.977 561.416 348.439 567.628 344.894 574.445C342.421 579.206 337.642 584.048 337.141 589.582C336.301 598.865 345.128 589.588 347.171 587C349.91 583.528 352.915 577.453 357.032 575.571C359.972 574.227 364.267 574.373 367.458 573.321C370.802 572.218 374.085 571.074 377.463 570.066C384.041 568.1 390.387 565.326 396.783 562.83C403.402 560.247 410.02 557.64 416.515 554.767C419.522 553.437 422.055 552.755 425.268 552.177C426.65 551.927 431.596 549.59 432.685 549.789C434.514 550.122 437.036 555.498 438.422 556.88C440.56 559.012 442.964 560.754 444.96 563.047C448.894 567.564 453.061 572.378 456.471 577.286C464.092 588.252 471.219 600.234 473.93 613.443C475.147 619.372 473.727 619.766 467.993 619.536ZM269.8 605.199C269.754 605.099 269.725 605.004 269.705 604.912C269.73 605.004 269.751 605.095 269.8 605.199C270.703 604.664 270.942 604.948 271.034 605.386C270.58 605.094 270.156 604.988 269.8 605.199ZM267.699 599.077C267.661 598.912 267.645 598.759 267.639 598.614C267.652 598.767 267.664 598.921 267.699 599.077C268.192 598.746 268.605 598.84 269.001 599.077C268.579 598.849 268.125 598.791 267.699 599.077ZM268.606 595.07C268.883 595.049 269.198 594.899 269.554 594.541C269.262 594.835 268.988 595.143 268.737 595.463C268.742 595.424 268.748 595.387 268.751 595.346C268.756 595.269 268.693 595.174 268.606 595.07ZM178.752 561.503C176.698 566.346 175.843 571.645 174.098 576.605C172.763 580.4 172.23 584.148 171.88 588.116C173.098 589.014 173.07 589.804 171.799 590.488C171.708 591.351 171.677 592.216 171.706 593.084C171.375 595.611 171.863 597.809 172.532 600.231C173.59 604.071 174.933 606.83 176.903 610.149C164.946 614.206 151.323 615.348 138.777 615.055C131.996 614.896 124.39 614.881 117.782 616.553C110.667 618.355 104.429 617.602 97.1197 616.973C98.1874 614.822 102.268 611.233 104.335 609.738C105.387 608.978 107.118 608.849 107.915 607.997C109.054 606.783 109.187 604.428 109.629 602.837C112.448 592.691 114.535 582.46 116.306 572.082C119.426 553.788 120.876 535.062 121.796 516.631C121.874 515.072 122.679 513.321 122.64 511.845C122.589 509.905 122.034 509.27 122.19 507.32C122.292 506.048 123.816 504.322 123.706 503.192C123.636 502.483 121.901 503.095 122.005 501.709C122.167 499.573 124.932 496.758 125.56 494.841C125.839 493.988 124.798 493.139 124.83 492.207C124.821 492.473 125.517 489.326 125.543 489.212C125.753 488.308 126.6 487.928 126.554 486.82C126.512 485.813 125.045 484.494 125.84 483.45C126.643 482.394 128.308 483.992 128.814 483.068C129.39 482.022 126.858 478.447 127.14 476.827C127.632 473.989 129.562 470.938 130.318 468.057C130.601 466.977 130.145 465.642 131.024 464.707C132.553 463.079 133.88 464.749 136.085 464.202C133.897 462.344 133.416 460.552 134.065 457.829C134.592 455.617 135.607 453.224 137.997 455.409C137.682 452.529 137.345 452.237 139.413 449.832C141.198 447.755 143.512 445.267 145.649 443.677C148.843 441.297 153.943 440.074 157.731 439.794C161.865 439.49 166.948 441.706 170.078 444.83C173.884 448.631 178.807 451.402 183.125 455.036C187.736 458.916 191.695 463.524 196.125 467.637C197.035 468.48 198.709 470.842 200.115 470.436C202.406 469.773 200.555 466.353 200.053 464.831C196.481 454.008 190.062 443.104 181.23 435.721C176.677 431.911 172.145 427.094 166.851 424.32C162.575 422.079 159.235 422.432 154.688 422.272C150.801 422.135 150.003 421.905 146.537 423.541C144.08 424.7 141.647 425.831 139.329 427.249C135.622 429.515 131.798 432.269 129.058 435.692C121.764 444.81 118.918 456.403 116.051 467.514C112.897 479.734 110.726 491.675 110.343 504.355C109.954 517.258 109.357 529.97 108.085 542.82C107.423 549.503 106.662 556.171 105.798 562.831C105.002 568.971 104.961 575.571 103.724 581.6C102.166 579.33 101.681 577.576 100.821 575.13C100.241 573.483 99.6519 573.539 98.8118 572.324C97.0319 569.755 94.8069 564.88 94.1057 561.707C93.677 559.767 94.0737 558.794 93.2784 557.087C93.0325 556.56 91.696 556.973 91.4821 556.138C91.3285 555.539 92.1659 555.075 92.1284 554.871C92.0406 554.399 93.3406 553.874 92.218 552.388C90.6228 550.278 91.4391 552.925 90.578 552.889C89.8604 552.858 92.0132 545.575 91.76 544.518C91.6704 544.144 90.45 544.094 90.3522 543.747C90.056 542.697 90.1227 541.176 89.8339 540.036C89.1272 537.253 88.0787 536.138 88.0275 532.96C87.959 528.76 86.4031 525.788 85.6544 521.781C85.5099 521.01 86.3574 520.177 86.1992 519.512C85.8774 518.155 84.8737 516.968 84.5044 515.533C83.7932 512.769 84.743 508.87 84.5483 506.623C84.3773 504.657 83.8261 501.465 83.4631 499.022C82.8726 495.046 83.9339 496.344 85.6608 493.842C83.2666 493.069 83.571 493.748 82.8059 491.175C81.9228 488.203 82.0042 486.451 84.7009 488.096C83.9842 486.331 82.6541 484.168 82.3616 482.276C82.0901 480.519 82.7327 478.904 82.549 477.159C82.0508 472.437 80.5772 469.873 83.2602 465.291C79.812 463.525 81.314 457.442 80.7728 454.049C80.1914 450.386 78.7772 446.965 81.5032 444.579C78.7004 442.562 79.8102 436.777 79.8221 433.689C79.8266 432.287 80.302 429.821 80.1813 428.577C80.0972 427.702 79.5021 427.114 79.3293 426.096C78.6922 422.319 80.0991 418.58 79.2526 414.824C78.2991 410.592 78.1876 406.981 77.8603 402.832C77.544 398.812 76.9224 394.633 76.6545 390.511C76.4571 387.453 75.2641 384.143 75.8135 380.975C75.8574 380.725 76.5851 378.471 76.6061 378.98C76.5723 378.166 75.979 377.157 75.9516 376.672C75.7568 373.004 75.6865 370.014 75.8437 366.292C75.8364 366.292 75.8281 366.29 75.8208 366.291C76.2752 366.015 76.5192 365.441 76.5384 364.547C79.9693 364.215 83.7228 365.053 87.1892 365.145C90.9263 365.244 94.6506 365.058 98.383 364.886C100.784 364.774 105.959 363.637 107.787 365.642C109.111 367.094 108.278 374.568 108.367 376.512C108.471 378.809 109.634 382.414 108.29 384.424C107.456 385.671 105.572 386.169 104.601 387.538C104.01 388.37 103.529 389.767 103.215 390.672C102.266 393.398 101.888 396.341 102.033 399.219C102.719 412.694 113.518 418.882 125.643 413.452C136.206 408.722 139.078 394.416 130.003 386.399C127.866 384.512 125.589 384.033 122.862 383.566C121.129 383.27 116.4 383.452 115.267 382.215C114.143 380.989 114.417 377.16 114.293 375.567C114.093 373.01 113.064 369.211 113.622 366.743C112.709 364.687 113.318 363.818 115.452 364.133C116.128 363.998 116.803 363.862 117.479 363.726C119.181 363.418 120.853 363.046 122.582 362.927C125.662 362.716 128.666 363.081 131.75 362.669C134.774 362.264 137.737 361.508 140.767 361.117C143.986 360.701 147.148 361.163 150.333 360.617C156.946 359.485 164.051 357.962 170.237 355.363C171.895 354.667 174.703 352.663 176.541 352.994C178.743 353.39 178.154 354.791 178.788 356.885C182.306 368.5 189.614 379.976 197.348 389.21C204.651 397.927 214.276 404.957 222.981 412.267C228.259 416.7 233.328 421.359 238.227 426.203C241.783 429.72 245.6 435.218 250.193 437.246C251.24 437.285 255.277 436.822 256.015 437.579C256.867 438.45 256.815 438.938 256.475 439.482C257.45 436.911 252.808 437.344 250.193 437.246C250.49 437.745 253.426 443.635 254.153 440.358C254.574 440.61 254.997 440.861 255.418 441.112C253.331 445.723 250.628 450.345 247.693 454.472C245.553 457.481 242.788 459.658 240.868 462.776C238.444 466.711 236.426 470.796 233.355 474.302C227.231 481.296 223.823 490.7 218.484 498.46C215.918 502.19 214.579 505.656 211.909 509.369C209.821 512.274 206.439 515.949 205.221 519.291C204.736 520.627 205.257 521.786 204.367 523.024C203.805 523.807 202.139 524.656 201.354 525.467C198.234 528.689 195.802 533.286 193.355 537.077C190.749 541.114 188.933 545.302 186.725 549.507C184.461 553.822 180.713 556.879 178.752 561.503ZM97.5694 579.92C95.9477 579.946 95.3398 579.954 95.1588 579.243C95.1058 579.029 95.0894 578.75 95.0967 578.388C95.0894 578.75 95.1058 579.029 95.1588 579.243C95.3398 579.954 95.9477 579.945 97.5694 579.919V579.92ZM97.7724 573.878C97.9406 574.332 96.9295 575.103 94.2438 574.818C96.9039 575.1 97.9223 574.336 97.7724 573.878ZM91.1686 589.047C91.409 589.26 91.6421 589.482 91.8697 589.711C91.643 589.482 91.409 589.26 91.1686 589.047ZM74.4185 620.765C72.2309 620.001 66.5413 618.649 62.8362 617.051C64.489 617.514 66.2094 617.895 66.8713 618.126C69.3861 619.006 71.9019 619.886 74.4185 620.765C77.9819 607.92 91.3614 603.024 102.81 598.28C97.2952 598.049 95.3252 593.261 91.9913 589.839C95.3179 593.252 97.3199 598.05 102.81 598.28C91.3633 603.023 77.9819 607.921 74.4185 620.765ZM61.9038 607.833C61.7776 608.041 61.6533 608.257 61.5281 608.491C61.1871 609.13 59.9018 611.984 59.3615 613.858C59.2527 611.932 60.3963 609.679 61.9038 607.833ZM74.4999 363.921C74.7037 363.84 74.8683 363.827 75.0173 363.838C74.4194 363.866 74.2567 364.577 74.2302 365.562C73.711 365.01 73.5866 364.286 74.4999 363.921ZM116.055 393.606C119.953 395.542 123.737 396.669 127.457 399.011C122.893 402.559 108.324 408.288 108.76 397.324C108.811 396.047 109.558 392.615 110.723 391.855C112.497 390.7 114.509 392.838 116.055 393.606ZM71.4201 342.557C88.5897 348.548 108.592 347.067 126.043 344.145C144.792 341.005 163.511 339.157 181.673 333.28C181.692 335.809 182.789 338.458 180.785 340.543C179.213 342.177 175.808 342.486 173.732 343.175C168.302 344.975 163.638 347.598 157.962 348.674C151.605 349.88 145.254 349.855 138.842 350.568C136.52 350.827 134.336 351.243 132.155 351.663C129.134 351.707 126.767 352.117 123.752 352.954C112.965 353.005 102.251 353.325 91.5086 352.04C86.0529 351.386 80.6567 350.587 75.1873 350.03C70.0644 349.509 71.208 347.3 71.4201 342.557ZM64.8519 296.47C54.7405 299.262 44.3118 298.427 34.364 295.229C27.1696 292.918 17.6268 289.531 16.1139 280.776C15.1147 275.001 18.5766 273.954 22.6473 271.556C24.5954 270.409 25.5424 269.542 26.8524 267.599C27.6303 266.444 28.3288 263.548 29.2018 262.758C31.3281 260.834 38.0389 262.523 41.3664 262.374C46.3248 262.153 49.6852 260.487 54.2468 259.016C62.3042 256.417 67.4033 253.266 73.6579 247.32C79.7416 241.537 86.8857 235.655 91.8048 228.839C97.3144 221.207 102.586 213.781 108.588 206.502C113.035 201.109 121.102 190.313 129.082 190.362C133.087 190.388 132.495 194.165 135.675 196.085C138.579 197.837 142.378 196.618 145.571 196.314C143.466 201.096 140.548 206.015 141.58 211.427C142.16 214.457 142.467 215.504 141.283 218.372C140.202 220.992 139.032 223.314 138.362 226.119C135.753 237.053 134.518 249.359 135.612 260.539C137.507 279.892 144.138 299.875 158.645 313.538C161.952 316.652 165.59 319.142 169.639 321.192C173.68 323.236 174.015 325.365 169.01 326.278C159.261 328.056 149.364 329.271 139.546 330.591C129.741 331.91 119.761 333.287 109.874 333.489C104.982 333.59 100.121 334.199 95.2301 333.852C92.7948 333.678 90.3751 333.243 87.9324 333.177C85.8006 333.117 82.6176 334.182 80.6329 333.342C77.5266 332.027 79.0716 322.936 78.8439 319.78C78.5816 316.157 76.2953 309.363 77.6528 305.938C78.6072 303.534 82.1084 302.526 83.9221 300.655C86.8995 297.584 89.7141 293.944 90.8513 289.758C94.6204 292.8 91.3779 294.752 92.5215 298.462C93.7702 302.509 96.073 301.237 97.8757 298.46C100.884 293.823 100.683 286.658 97.8053 282.035C96.1397 279.362 93.4338 277.353 90.6575 275.923C88.4115 274.767 83.4394 272.499 80.952 273.503C74.201 276.232 81.3862 284.294 84.8179 286.208C83.9933 288.59 78.1455 292.026 75.9159 293.043C72.6039 294.555 68.4071 295.488 64.8519 296.47ZM157.511 222.63C157.6 223.927 157.738 225.167 158.167 226.408C159.04 228.938 160.787 231.132 163.194 232.384C167.863 234.816 177.334 231.314 181.438 228.447C181.438 237.14 182.997 244.056 185.492 252.303C187.904 260.283 192.842 266.777 197.044 273.862C199.222 277.536 201.222 281.329 204.299 284.345C207.426 287.411 207.946 288.586 207.661 293.107C207.192 300.553 203.646 305.631 196.942 308.715C191.632 311.658 180.667 314.05 174.881 311.591C168.799 309.004 162.876 302.308 158.937 297.154C149.988 285.446 145.45 267.811 145.994 253.254C146.277 245.672 146.678 237.914 147.404 230.359C147.932 224.855 147.739 216.942 155.745 219.422C158.332 220.223 157.303 219.626 157.511 222.63ZM188.232 324.299C189.004 322.727 195.799 321.146 196.982 322.069C198.776 323.467 198.85 331.627 199.481 333.949C200.48 337.636 201.796 341.278 203.38 344.754C206.706 352.046 211.476 359.576 217.136 365.256C223.002 371.139 229.742 375.215 236.864 379.431C238.899 380.637 240.869 382.09 242.96 383.184C243.838 383.643 245.464 383.858 246.155 384.548C247.864 386.258 247.074 389.764 247.054 391.99C246.971 400.904 247.001 409.529 248.183 418.323C241.204 412.922 234.899 406.066 228.686 399.768C222.172 393.164 213.783 388.805 207.606 381.811C201.986 375.45 197.562 368.034 193.433 360.675C191.625 357.451 188.179 353.341 188.055 349.572C187.921 345.508 189.774 341.206 189.796 336.998C189.809 334.02 187.085 326.638 188.232 324.299ZM272.031 415.3C271.607 417.993 271.946 423.764 268.201 424.342C265.623 424.743 264.038 422.296 263.092 420.247C260.238 414.053 261.182 405.791 260.117 399.137C258.858 391.282 258.828 383.536 257.855 375.669C256.997 368.733 254.135 359.982 255.695 353.146C257.109 353.111 260.929 366.487 261.754 368.608C263.451 372.975 265.404 376.65 266.872 381.178C268.817 387.175 270.503 392.901 271.399 399.176C272.029 403.586 274.392 411.419 272.031 415.3ZM292.745 385.726C289.251 391.15 285.477 396.803 280.553 401.328C280.553 398.798 278.66 390.571 279.943 388.614C281.47 386.284 290.141 386.177 292.745 385.726ZM157.191 172.081C160.161 170.733 163.473 170.309 166.467 168.916C169.33 167.585 171.456 166.782 174.633 166.52C185.676 165.614 196.921 168.441 207.139 171.532C212.762 173.234 217.198 176.962 221.948 180.191C226.862 183.532 229.557 186.44 231.696 192.093C236.299 204.252 239.132 215.748 240.963 228.57C242.821 241.578 239.803 254.728 239.992 267.763C240.176 280.624 241.095 294.013 245.18 306.258C248.339 315.726 253.937 330.967 265.736 331.911C276.936 332.807 286.411 321.259 291.042 312.59C303.283 289.669 307.883 263.469 308.547 237.744C310.275 229.136 311.264 219.855 314.259 211.599C317.59 216.809 320.307 222.4 323.37 227.769C326.731 233.663 326.515 238.471 326.224 245.168C325.998 250.375 324.161 255.351 323.493 260.536C322.722 266.522 321.306 272.359 320.965 278.404C320.565 285.534 320.963 292.737 320.362 299.848C319.859 305.829 318.538 311.835 317.58 317.76C316.649 323.518 316.535 329.186 316.672 334.925C316.804 340.481 318.725 345.876 323.432 348.849C316.436 357.482 307.714 370.195 295.995 372.241C292.065 372.927 288.396 373.461 284.418 373.752C281.182 373.988 277.402 375.803 274.613 373.787C269.81 370.315 268.863 362.578 267.049 357.518C265.794 354.017 253.347 325.351 246.795 333.473C245.627 334.92 245.903 340.23 245.724 342.268C245.467 345.206 245.585 348.193 245.492 351.142C245.372 354.894 245.04 358.7 245.3 362.451C245.458 364.714 246.817 367.157 244.254 367.701C241.883 368.206 236.884 363.494 235.158 362.274C232.842 360.637 230.345 359.408 227.999 357.83C223.176 354.589 219.349 350.506 215.917 345.88C212.462 341.224 209.386 335.999 207.048 330.684C205.861 327.986 204.891 325.222 203.899 322.452C203.921 322.513 202.427 319.019 202.51 318.775C202.773 317.993 205.931 316.696 206.711 316.081C215.622 309.047 217.407 291.558 215.038 281.328C213.604 275.138 208.861 269.7 205.493 264.43C202.238 259.34 198.795 254.354 196.096 248.936C193.119 242.968 190.819 236.701 188.149 230.599C186.86 227.653 185.314 226.137 187.239 223.44C188.418 221.786 190.859 221.109 191.909 219.299C192.967 217.478 193.076 213.964 191.174 212.662C189.093 211.237 186.068 213.227 184.161 214.003C181.616 215.038 179.073 215.54 176.476 216.335C173.527 217.24 170.874 219.239 167.743 219.239C169.426 213.443 176.699 213.993 179.058 208.602C180.67 204.918 180.459 198.063 175.434 197.456C172.58 197.11 170.33 199.288 168.208 200.749C165.415 202.67 163.307 203.029 160.035 203.631C158.83 203.853 156.875 204.982 155.732 204.598C153.879 203.977 154.948 204.361 155.919 202.837C157.362 200.57 160.776 198.358 162.839 196.704C167.477 192.987 173.907 190.306 177.925 185.983C180.581 183.125 181.886 173.514 176.839 171.98C174.815 171.364 171.523 173.372 169.54 173.986C166.188 175.023 162.775 175.848 159.469 177.031C153.595 179.132 147.955 181.627 141.996 183.512C145.391 178.679 151.839 174.512 157.191 172.081ZM355.808 170.665C355.808 173.986 357.075 180.299 355.645 183.319C354.356 186.037 346.525 187.553 343.76 188.591C334.804 191.955 325.922 195.702 316.768 198.487C326.203 184.514 340.222 176.402 355.808 170.665ZM354.488 125.546C352.167 128.879 348.133 133.398 343.414 131.823C338.326 130.125 334.341 122.335 336.939 117.391C339.161 113.168 345.498 110.518 349.41 113.847C350.264 114.572 350.821 116.429 351.638 116.997C352.163 117.361 352.994 116.387 353.634 116.776C355.527 117.926 356.256 120.731 358.985 120.496C360.249 120.388 364.298 117.087 365.127 116.244C367.344 113.985 366.572 111.67 366.922 108.702C367.405 104.612 370.227 103.985 373.474 101.875C376.565 99.8646 379.05 96.868 382.108 94.9328C385.759 92.6209 383.666 95.5517 387.001 95.8415C387.603 95.8945 388.947 93.8952 389.99 93.9281C391.344 93.972 391.932 94.8725 392.704 95.8552C394.385 97.9897 393.148 98.6598 396.077 99.1571C398.19 99.5163 399.499 97.9806 401.307 98.0107C402.785 96.3369 404.974 92.8421 407.617 93.8742C409.406 94.5726 410.046 98.3206 410.43 99.8857C411.883 105.819 411.773 112.792 411.827 118.876C408.427 116.49 407.986 114.888 406.924 111.041C406.234 108.542 404.568 104.869 402.749 108.623C402.233 109.689 402.676 111.323 402.334 112.494C401.938 113.851 400.99 114.52 400.842 116.001C400.486 119.595 403.428 120.826 405.968 122.576C403.599 125.13 396.78 123.202 398.598 128.656C400.521 134.418 407.906 131.227 411.59 129.781C414.73 141.685 400.777 147.421 392.276 150.676C387.283 152.587 385.33 153.652 384.644 159.481C384.056 164.477 384.729 169.593 386.561 174.259C387.295 176.13 387.998 178.686 389 180.417C389.849 181.883 391.54 181.986 392.11 182.804C394.211 185.822 392.698 192.37 392.452 195.991C391.78 205.894 388.695 214.914 387.37 224.578C386.689 229.521 384.653 234.148 383.78 239.033C382.979 243.516 382.663 247.747 378.885 250.952C371.295 257.392 365.425 247.882 362.795 241.63C359.049 232.725 358.675 221.022 359.293 211.527C359.966 201.204 364.688 191.288 364.937 181.042C365.204 170.085 363.55 159.683 360.809 149.089C359.61 144.459 357.866 140.314 356.387 135.837C355.179 132.177 357.18 128.872 354.488 125.546ZM374.218 17.1502C374.219 17.1585 374.219 17.1659 374.22 17.1742C374.172 17.1203 374.124 17.0689 374.071 17.0059C374.126 17.0714 374.174 17.1162 374.218 17.1502ZM374.444 16.1238C374.331 15.3504 374.083 14.3771 373.914 13.9394C374.325 14.1922 374.792 14.4045 374.807 14.6698C374.851 15.4308 374.633 15.7889 374.444 16.1238ZM385.712 18.0778C385.634 18.1226 385.557 18.1715 385.477 18.2146C385.289 18.2146 385.132 18.1748 384.992 18.1126C385.046 18.1242 385.104 18.1333 385.172 18.1384C385.355 18.1516 385.535 18.1242 385.712 18.0778ZM391.602 16.1371C390.547 16.1288 389.436 16.0301 388.203 16.5648C388.399 16.4472 388.595 16.3419 388.793 16.2714C389.345 16.0758 390.512 16.0973 391.602 16.1371ZM331.861 305.693C332.088 300.735 332.085 299.248 335.98 296.052C339.227 293.387 342.368 290.591 345.649 287.966C352.912 282.153 360.674 275.999 368.933 271.658C373.56 269.227 386.187 264.326 382.995 273.926C379.984 282.984 374.174 291.03 369.172 299.079C364.072 307.282 358.971 315.492 353.673 323.57C351.368 327.083 348.937 330.529 346.732 334.104C344.563 337.625 344.34 339.998 339.889 338.541C336.656 337.481 333.003 336.191 329.953 334.813C327.274 333.603 327.434 332.863 327.361 329.715C329.019 321.577 331.477 314.114 331.861 305.693ZM352.589 206.511C351.463 211.046 343.386 211.585 339.028 212.464C338.28 212.615 334.484 213.843 333.776 213.423C332.378 212.591 333.065 210.187 332.47 209.024C329.208 202.654 329.16 210.797 328.23 212.715C325.687 217.97 321.791 207.45 320.363 204.874C319.263 202.892 318.085 201.884 319.224 200.22C320.171 198.835 325.443 197.884 327.062 197.287C332.967 195.106 338.856 192.884 344.745 190.661C347.279 189.704 355.085 184.691 355 189.508C354.158 195.053 353.935 201.087 352.589 206.511ZM348.174 260.658C345.69 261.43 338.943 264.526 336.43 263.066C334.309 261.833 335.775 257.514 336.013 255.265C336.463 251.027 336.397 246.416 336.157 242.165C335.802 235.887 335.28 235.391 341.475 233.702C343.869 233.048 351.178 229.513 352.956 231.507C353.787 232.438 353.435 235.398 353.618 236.527C354.014 238.968 354.695 241.354 355.587 243.66C357.129 247.645 359.379 251.223 361.733 254.766C357.511 257.364 352.895 259.19 348.174 260.658ZM334.148 216.26C335.22 214.718 340.559 214.498 342.324 214.126C345.443 213.465 348.565 212.813 351.685 212.154C351.852 215.954 354 225.879 351.267 228.62C349.73 230.163 344.589 230.56 342.412 231.096C340.041 231.679 337.666 232.252 335.291 232.825C335.022 229.162 334.799 225.498 334.408 221.845C334.266 220.502 333.276 217.514 334.148 216.26ZM334.764 266.431C336.405 264.541 340.847 264.596 343.317 264.019C347.249 263.099 350.977 261.842 354.701 260.287C356.783 259.416 360.888 256.436 363.19 257.191C363.836 257.402 365.186 260.061 365.677 260.559C366.516 261.413 367.6 261.991 368.574 262.666C371.255 264.524 372.882 265.101 376.043 265.73C359.507 272.512 346.221 284.577 332.542 295.706C331.572 294.893 332.111 287.617 332.218 285.948C332.415 282.85 332.548 279.712 332.781 276.604C332.971 274.05 333.02 268.437 334.764 266.431ZM384.982 332.404C384.483 335.226 384.407 339.102 383.197 341.709C382.088 344.097 382.223 343.931 379.273 344.002C375.546 344.092 371.271 344.717 367.662 343.582C370.885 336.466 373.567 328.732 377.976 322.239C379.361 320.2 382.035 314.98 384.932 315.291C387.839 315.604 387.2 318.519 386.97 320.628C386.54 324.566 385.671 328.503 384.982 332.404ZM399.499 221.391C401.737 206.039 401.548 191.029 401.548 175.569C405.12 176.042 409.055 175.744 412.498 176.754C411.386 180.299 408.18 183.497 411.354 186.863C414.577 190.282 422.089 191.78 426.444 193.039C431.546 194.513 436.748 196.316 441.99 197.192C444.346 197.585 446.913 197.967 449.29 197.51C453.053 196.788 453.385 195.789 455.86 199.665C455.873 199.686 455.894 199.718 455.907 199.74C455.192 199.33 452.925 199.577 453.529 199.594C453.618 199.907 453.75 200.218 453.828 200.507C453.159 199.958 451.683 199.495 451.478 199.459C449.017 199.026 445.895 200.131 443.524 200.677C438.209 201.906 432.934 203.243 427.786 205.062C423.453 206.592 419.161 208.305 415.028 210.316C411.837 211.868 404.468 214.601 403.461 218.403C401.531 225.693 420.79 231.232 425.486 233.7C429.922 236.03 428.521 239.487 428.571 244.117C428.625 249.146 429.082 254.127 428.732 259.145C428.463 263.033 428.165 262.43 424.287 262.361C421.382 262.309 418.477 262.192 415.575 262.364C411.481 262.608 407.277 263.175 403.435 264.664C397.687 266.89 386.647 277.492 397.647 280.722C402.178 282.053 408.018 281.566 412.661 281.245C416.688 280.967 422.998 279.134 426.884 280.519C428.91 279.945 429.64 280.681 429.076 282.727C429.169 284.13 429.263 285.533 429.356 286.935C429.544 289.758 429.731 292.58 429.919 295.403C430.304 301.178 430.687 306.955 431.07 312.731C427.694 307.946 423.05 298.507 415.856 299.586C409.682 300.511 406.032 310.085 404.044 315.026C402.428 319.04 401.384 323.248 400.291 327.427C399.241 331.444 398.858 337.125 396.938 340.766C395.047 344.352 392.418 343.148 388.547 343.517C383.707 343.978 385.657 341.269 386.427 337.155C387.599 330.888 391.746 320.078 387.747 314.237C382.641 306.782 375.427 320.596 373.466 324.327C371.632 327.814 370.068 331.429 368.665 335.108C367.758 337.484 367.025 342.612 364.685 343.911C361.82 345.505 357.277 342.958 354.645 342.125C351.553 341.147 348.175 340.738 345 340.099C354.039 325.95 363.437 312.015 372.206 297.7C376.589 290.544 382.119 283.03 384.527 274.933C384.984 273.4 385.544 271.935 385.357 270.304C385.196 268.912 383.103 266.723 383.237 265.757C383.433 264.325 386.307 263.13 387.652 261.626C392.322 256.397 393.494 250.174 394.945 243.527C396.522 236.294 398.435 228.699 399.499 221.391ZM417.144 177.515C424.028 176.032 431.85 179.986 437.606 183.18C441.403 185.286 451.539 189.689 451.929 194.848C451.824 193.449 442.503 194.322 440.66 194.367C432.786 192.662 424.387 190.363 417.039 186.965C414.364 185.727 411.221 184.515 412.196 181.339C412.835 179.251 415.193 177.935 417.144 177.515ZM409.159 279.007C404.808 278.756 389.01 278.928 396.96 271.04C401.938 266.1 411.104 265.027 417.725 265.001C420.097 264.992 422.435 265.178 424.791 265.42C425.437 265.497 426.084 265.573 426.73 265.65C428.705 265.258 429.32 266.075 428.579 268.101C428.932 269.286 429.5 276.317 428.459 277.306C427.077 278.618 422.678 278.039 421.057 278.166C417.077 278.476 413.153 279.03 409.159 279.007ZM432.266 338.766C420.818 340.471 409.389 342.646 397.78 342.828C399.513 334.367 401.532 325.924 404.686 317.864C406.703 312.713 410.363 301.592 417.419 302.139C423.051 302.576 429.624 312.226 431.193 317.156C433.24 323.582 432.266 332.082 432.266 338.766ZM461.666 210.147C461.438 211.32 456.299 213.429 455.201 214.067C447.275 218.673 440.216 225.499 435.472 233.258C434.945 230.263 435.029 224.584 432.519 222.457C428.102 218.713 429.009 227.102 428.481 229.664C427.986 232.068 428.602 231.678 426.529 231.892C424.691 232.081 419.999 228.639 418.304 227.771C413.615 225.373 409.121 222.763 404.617 220.041C408.349 213.877 419.352 211.047 425.618 208.581C434.623 205.038 443.5 203.224 453.03 201.757C454.624 202.586 454.83 200.721 456.021 200.304C456.087 200.207 456.109 200.125 456.113 200.05C457.512 202.13 462.007 208.401 461.666 210.147ZM473.324 293.217C477.759 313.595 478.863 334.796 484.465 354.928C489.792 374.065 494.521 393.118 500.674 411.996C504.218 422.87 507.509 433.852 512.247 444.295C515.55 451.577 518.173 467.109 526.221 470.518C531.49 472.749 533.827 470.774 533.264 465.431C532.776 460.781 530.365 457.861 528.375 453.846C527.682 452.447 525.425 448.5 525.671 447.016C525.976 445.171 526.445 445.37 528.369 444.457C532.454 442.52 536.526 441.208 540.875 440.087C539.121 442.808 535.616 446.7 535.334 450.028C535.101 452.774 537.074 457.811 539.803 458.865C542.382 459.861 545.415 457.761 547.623 456.48C550.178 454.997 552.615 454.584 555.427 453.531C551.842 458.697 545.969 462.813 548.484 469.919C551.167 477.499 559.49 471.3 564.813 470.443C563.293 476.316 556.547 483.013 551.696 486.282C548.439 488.476 544.905 490.454 541.409 492.23C540.056 492.917 538.278 493.337 537.035 494.156C536.563 494.468 535.768 495.79 535.338 495.997C529.3 498.913 521.065 499.657 514.496 501.058C507.259 502.602 501.029 502.98 493.578 502.621C487.414 502.326 480.585 498.539 475.434 495.358C471.517 492.941 470.945 489.987 469.727 485.719C467.705 478.646 465.896 471.527 463.967 464.43C462.305 458.311 461.53 452.432 460.404 446.224C458.017 433.067 456.917 419.702 454.357 406.568C451.814 393.522 450.964 380.306 450.26 366.97C449.92 360.547 448.875 353.995 448.557 347.698C448.298 342.575 448.386 337.42 448.413 332.152C448.434 328.449 447.121 324.748 447.211 321.031C447.29 317.745 447.591 314.786 447.244 311.466C446.504 304.394 445.926 297.406 445.369 290.322C444.285 276.516 441.093 262.892 439.82 249.145C439.271 243.199 445.796 237.498 450.217 234.036C454.928 230.345 458.708 225.163 463.893 222.259C465.814 246.103 468.232 269.824 473.324 293.217ZM395.239 548.143C390.127 550.422 385.017 552.705 379.902 554.98C376.142 556.653 371.209 560.09 367.077 559.78C370.014 555.801 371.866 551.25 374.998 547.385C378.126 543.526 380.707 539.427 383.536 535.349C387.253 539.883 391.052 544.037 395.239 548.143ZM396.326 528.133C404.061 524.054 415.049 516.302 424.115 517.765C430.644 518.818 438.039 523.598 441.982 528.863C443.831 531.332 445.682 533.636 447.798 536.055C449.737 538.273 450.732 537.985 449.037 540.298C447.732 542.077 444.658 543.282 442.657 543.969C442.657 540.077 443.867 536.174 439.19 536.559C437.345 536.711 435.194 537.152 433.354 537.452C431.769 537.711 430.85 538.399 429.5 538.717C428.059 539.057 426.336 538.657 424.843 538.774C422.27 538.976 420.211 540.007 417.773 540.547C412.732 541.664 408.477 543.208 403.567 544.858C401.321 541.424 399.435 537.297 396.383 534.49C392.972 531.352 391.517 530.669 396.326 528.133ZM329.979 13.9925C330.721 13.9145 331.57 13.4528 332.143 12.4903C331.139 14.1749 330.548 14.2511 329.979 13.9925ZM306.796 16.6752C307.696 16.8384 308.583 17.0383 309.327 17.3872C310.06 17.7305 310.456 18.1217 310.846 18.465C310.664 18.3854 310.466 18.3 310.243 18.2071C309.277 17.8034 308.04 17.0747 306.796 16.6752ZM291.335 144.419C291.275 144.336 291.217 144.26 291.16 144.186C291.217 144.26 291.275 144.336 291.336 144.419H291.335ZM288.329 144.855C288.048 144.751 287.807 144.58 287.618 144.332C287.807 144.58 288.048 144.751 288.329 144.855C288.518 144.923 288.725 144.962 288.948 144.973C288.725 144.962 288.518 144.923 288.329 144.855ZM287.127 142.395C287.126 142.752 287.154 143.066 287.209 143.342C287.154 143.066 287.126 142.752 287.127 142.395ZM290.767 143.726C290.694 143.649 290.623 143.578 290.551 143.511C290.623 143.578 290.694 143.65 290.767 143.726ZM290.148 143.186C290.032 143.109 289.917 143.038 289.797 142.979C289.917 143.038 290.032 143.109 290.148 143.186ZM418.713 20.0309C418.88 20.079 419.024 20.0998 419.157 20.1072C418.976 20.1255 418.83 20.0981 418.713 20.0309ZM422.692 22.6962C422.207 22.2477 421.921 21.8083 421.774 21.3682C421.849 21.4146 421.931 21.4568 422.023 21.4933C422.168 21.3507 422.311 21.2081 422.455 21.0648C422.256 21.4361 422.187 21.7942 422.341 22.1159C423.083 23.6678 423.989 21.3085 425.108 22.4757C424.269 22.3729 423.247 22.6962 422.692 22.6962C421.4 24.4686 420.107 26.2419 418.816 28.0142C420.565 28.8872 421.113 27.8095 422.089 29.4004C422.137 29.4774 422.18 29.6665 422.216 29.916C421.81 28.7563 420.751 28.9792 418.816 28.0142C420.107 26.2419 421.4 24.4686 422.692 22.6962ZM426.038 26.5983C426.158 26.5088 426.23 26.3853 426.277 26.2219C426.307 26.1125 426.326 25.9857 426.339 25.8389C426.326 25.9857 426.307 26.1125 426.277 26.2219C426.23 26.3853 426.158 26.5088 426.038 26.5983C425.959 26.658 425.857 26.7028 425.729 26.7334C425.857 26.7028 425.959 26.658 426.038 26.5983ZM426.405 24.714C426.387 24.9453 426.378 25.1534 426.369 25.3399C426.378 25.1534 426.387 24.9453 426.405 24.714ZM424.493 29.4352C424.55 29.5379 424.611 29.6308 424.677 29.717C424.612 29.6284 424.549 29.5379 424.493 29.4352ZM422.551 36.4104C420.704 35.4214 422.308 34.1763 422.384 32.6567C422.391 32.5216 422.394 32.4072 422.397 32.2828C422.41 32.6501 422.413 32.951 422.404 33.0986C422.278 35.2456 420.754 35.8434 423.528 36.4942C423.718 36.5389 423.963 36.5621 424.243 36.5729C423.534 36.6243 422.916 36.6061 422.551 36.4104ZM451.186 52.3671C451.07 51.4892 455.177 49.5733 455.706 49.3379C455.057 49.6273 451.076 51.5348 451.186 52.3671ZM455.856 44.5927C455.829 44.5812 455.799 44.5778 455.771 44.5653C455.777 44.5007 455.77 44.4402 455.77 44.3772C455.789 44.4567 455.815 44.5305 455.856 44.5927ZM458.043 51.6832C458.065 51.5879 458.109 51.3334 458.157 51.0299C458.229 51.4047 458.31 51.7562 458.386 52.0629C458.295 51.9435 458.188 51.8183 458.043 51.6832ZM454.852 51.6293C454.85 50.1412 455.317 50.4588 455.607 50.5035C455.341 50.9022 454.851 50.9768 454.852 51.6293ZM450.519 54.8973C450.951 54.8127 451.314 55.0605 451.649 55.3466C450.92 55.1534 450.32 54.9354 450.519 54.8973ZM446.996 63.3973C446.929 63.4201 446.868 63.4347 446.804 63.453C446.868 63.4347 446.929 63.4201 446.996 63.3973ZM447.352 63.2693C447.303 63.2885 447.262 63.3013 447.216 63.3186C447.262 63.3013 447.303 63.2885 447.352 63.2693ZM446.686 63.4878C446.597 63.5097 446.513 63.5252 446.433 63.5362C446.513 63.5252 446.597 63.5097 446.686 63.4878ZM449.394 114.925C449.576 114.619 449.968 114.518 450.411 114.469C449.854 114.682 449.424 115.138 449.323 115.8C449.212 115.555 449.185 115.278 449.394 114.925ZM452.624 105.411C452.593 105.402 452.561 105.39 452.532 105.387C451.628 105.317 451.235 105.902 451.137 106.797C451.198 106.016 451.459 105.38 452.135 105.172C452.099 105.102 452.069 105.036 452.036 104.967C452.208 105.124 452.407 105.272 452.624 105.411ZM451.552 110.228C451.533 110.122 451.511 110.006 451.486 109.886C451.588 110.312 451.703 110.735 451.821 111.142C451.704 110.814 451.603 110.502 451.552 110.228ZM452.339 95.4155C452.265 95.4493 452.182 95.4794 452.095 95.505C452.182 95.4794 452.265 95.4502 452.339 95.4155ZM452.561 95.2847C452.509 95.3231 452.45 95.356 452.389 95.3871C452.45 95.356 452.508 95.3222 452.561 95.2847ZM452.053 95.5197C451.949 95.5471 451.835 95.5709 451.709 95.5864C451.834 95.5709 451.948 95.548 452.053 95.5197ZM452.982 84.7062C452.994 85.1056 452.995 85.5042 453.007 85.8818C452.943 85.5106 452.936 85.1449 452.982 84.7062ZM632.193 618.032C629.723 615.813 621.45 615.664 618.166 615.041C625.272 608.242 630.615 591.053 617.038 588.846C614.032 588.357 613.182 589.515 612.494 586.112C612.072 584.026 612.931 582.104 611.897 580.026C609.439 575.093 600.105 575.644 595.44 574.934C596.554 571.017 599.288 564.019 595.17 560.839C591.922 558.331 585.161 561.679 581.709 562.753C572.384 565.656 562.911 568.969 555.044 574.815C551.519 570.056 547.833 565.36 544.876 560.215C542.055 555.306 540.308 549.878 537.656 544.881C534.998 539.868 532.175 533.959 528.463 529.652C525.319 526.004 521.007 525.644 516.859 523.903C506.337 519.487 497.219 519.741 486.223 521.373C475.233 523.005 465.706 529.432 456.398 535.041C452.744 522.721 444.294 509.335 431.193 505.536C425.314 503.83 419.129 505.476 413.754 508.156C407.093 511.479 401.857 517.129 395.344 520.274C402.77 507.56 412.146 495.601 420.307 483.595C424.784 477.009 430.44 471.131 434.813 464.421C439.27 457.58 442.553 449.975 445.787 442.508C448.518 449.477 448.981 456.808 451.489 463.801C453.792 470.22 455.369 476.806 457.988 483.119C460.722 489.709 463.137 496.211 466.832 502.344C468.941 505.843 474.136 516.74 477.966 509.75C486.488 515.506 494.714 518.982 505.373 518.729C510.253 518.614 515.687 518.461 520.358 517.367C525.102 516.259 529.635 514.765 534.349 513.701C538.079 512.86 541.488 510.583 544.881 508.896C548.782 506.956 552.648 503.469 555.661 500.41C559.392 496.623 563.247 492.977 566.998 489.213C570.709 485.489 570.441 481.688 572.426 477.06C574.499 472.231 575.387 467.963 572.646 463.09C570.638 459.52 567.086 460.012 566.255 456.396C565.466 452.966 566.233 449.734 564.078 446.586C562.443 444.199 556.559 442.602 556.54 440.164C556.524 438.15 558.617 436.367 558.534 433.95C558.459 431.792 557.403 428.322 556.243 426.496C554.064 423.062 550.744 422.945 547 423.995C537.955 426.53 529.088 433.049 522.867 439.896C514.338 416.536 507.622 392.665 501.384 368.773C498.628 358.22 496.469 347.527 494.717 336.766C492.983 326.111 490.354 315.378 489.182 304.669C488.479 298.245 486.502 292.234 485.578 285.889C484.814 280.637 484.304 275.342 483.55 270.086C481.886 258.44 479.574 246.973 477.774 235.355C476.78 228.935 474.536 223.317 472.809 217.134C471.328 211.832 470.446 207.299 467.97 202.289C463.248 192.736 458.391 181.034 449.217 174.963C441.058 169.563 433.143 165.051 423.199 163.946C417.365 163.297 412.665 164.667 406.961 165.297C401.91 165.855 397.585 168.645 392.659 169.651C392.659 164.97 392.202 164.844 396.475 163.178C398.935 162.219 401.337 161.165 403.844 160.331C406.485 159.452 408.486 158.594 410.738 156.979C413.396 155.072 411.72 155.678 414.906 156.336C419.928 157.377 418.448 156.17 421.752 153.668C423.673 152.212 425.636 153.1 427.885 153.391C429.984 153.663 433.437 154.59 435.039 152.701C436.258 151.264 434.93 148.798 435.827 147.237C437.244 144.771 441.306 144.884 443.474 143.227C445.846 141.417 446.061 139.374 445.546 136.589C445.191 134.661 442.151 130.377 442.322 128.719C442.436 127.614 443.019 127.29 443.77 127.2C449.71 127.499 449.423 126.605 447.974 121.341C447.889 122.121 447.837 122.783 447.779 123.355C447.763 122.537 447.769 121.774 447.974 121.341C448.129 121.014 448.685 120.804 449.187 120.541C449.055 120.673 448.916 120.807 448.752 120.958C449.006 122.077 449.08 125 450.155 125.795C450.923 126.365 453.619 126.306 454.163 125.355C455.301 123.367 451.389 122.239 451.236 120.764C455.728 120.388 454.196 118.199 451.847 115.964C451.754 115.35 452.11 115.06 452.917 115.093C452.516 114.674 452.019 114.435 451.524 114.359C451.874 114.3 452.178 114.198 452.338 113.949C452.479 113.731 452.488 113.428 452.436 113.09C452.524 113.35 452.6 113.574 452.656 113.747C456.532 115.311 454.54 107.01 452.932 105.595C453.056 103.291 453.179 100.988 453.301 98.6854C452.196 99.4149 451.354 100.552 451.066 101.74C451.105 100.643 451.745 99.7129 453.301 98.6854C450.81 97.5884 450.565 97.4549 453.24 97.2209C455.458 99.243 455.149 97.5646 456.523 96.3296C456.439 96.4027 458.6 94.0534 458.456 94.4126C459.483 91.8722 458.35 86.5125 454.212 88.2576C456.459 90.2697 454.204 90.6399 453.42 92.3695C453.393 92.4271 453.372 92.4883 453.35 92.5487C453.392 92.3421 453.448 92.1419 453.533 91.9581C454.92 88.9789 455.248 91.2661 453.722 87.8773C453.721 87.8755 453.72 87.8728 453.719 87.8691C454.122 88.073 454.753 88.03 455.755 87.6086C457.003 86.0838 457.381 86.7072 458.05 84.7427C458.636 83.025 458.365 81.8522 457.194 81.2132C457.328 81.2479 457.461 81.2872 457.596 81.321C458.113 79.9992 457.395 78.7404 456.198 78.1325C455.714 78.9232 455.231 79.7149 454.75 80.5065C454.968 80.5769 455.187 80.64 455.407 80.7067C455.405 80.7067 455.402 80.7067 455.4 80.7058C453.866 80.5285 453.245 80.8036 453.015 81.5112C452.938 81.194 452.917 80.8813 453.094 80.598C453.28 80.2954 454.606 80.7442 454.75 80.5065C457.126 76.6122 454.616 73.3697 450.792 71.386C449.339 70.6328 446.476 70.6072 445.963 68.8438C445.601 67.5978 447.406 64.5829 447.752 63.1047C450.421 61.8807 445.494 61.1649 445.461 61.1594C445.313 62.9027 445.409 63.6752 446.416 63.5399C445.402 63.677 445.313 62.8972 445.461 61.1594C446.909 61.3815 451.182 60.983 453.276 59.5587C456.744 59.6574 458.528 60.2584 460.632 57.2516C458.577 56.3986 456.156 56.8579 454.311 55.5481C454.397 55.9418 454.467 56.2991 454.51 56.629C454.35 56.1416 454.003 55.7221 453.538 55.3242C453.839 55.5828 453.682 55.6657 453.325 55.6541C453.393 55.5621 453.465 55.456 453.538 55.3242C453.662 53.8651 454.734 54.4596 455.82 54.5507C455.792 54.0815 455.607 53.6869 455.405 53.2956C455.605 53.6711 455.791 54.0558 455.82 54.5507C456.509 54.113 457.197 53.6753 457.886 53.2367C458.26 53.1281 458.484 52.9765 458.572 52.7858C458.573 52.7891 458.574 52.7933 458.575 52.7966C461.864 53.7781 460.863 46.8095 459.349 46.8451C458.943 46.8551 458.65 47.0043 458.433 47.2405C458.48 46.598 458.589 45.9183 458.853 44.9666H458.85H458.853C459.007 44.5571 459.16 44.1476 459.315 43.738C458.485 43.791 455.802 42.1886 455.754 44.1003C455.703 43.7554 455.566 43.4338 455.331 43.1411C455.572 41.0264 454.327 41.2062 452.398 40.6152C451.682 40.3954 450.891 39.0235 450.084 39.5997C448.871 40.4651 449.601 41.2801 450.38 41.8968C450.266 42.6155 449.922 43.19 449.348 43.6195C449.261 43.5374 449.177 43.4744 449.094 43.4106C449.631 43.0964 450.083 42.5964 450.38 41.8968C447.9 39.9345 446.854 41.2186 444.946 42.7971C445.705 43.4296 446.587 43.7703 447.429 43.8051C447.387 43.898 447.344 43.9917 447.306 44.1028C446.35 43.9834 445.563 43.5482 444.946 42.7971C446.972 41.12 446.79 40.092 444.325 39.0972C443.492 38.7615 442.965 39.5093 441.934 39.1138C441.423 38.9173 441.053 38.0253 440.554 37.7302C436.824 35.5225 432.344 36.7793 428.372 36.2562C428.869 36.1924 429.315 36.1303 429.653 36.0855C429.259 34.716 428.193 34.1232 427.071 33.7062C427.073 32.9262 427.074 32.1452 427.073 31.3651C426.914 31.3295 426.761 31.3129 426.614 31.3088C426.874 31.1032 427.028 30.8238 426.992 30.3479C426.033 30.6944 425.22 30.4391 424.695 29.7453C425.738 31.0775 427.771 30.3802 428.39 28.6717C429.04 26.881 427.647 25.6781 426.435 24.3492C426.464 23.0726 425.921 22.6133 425.22 22.4906C426.485 20.0069 426.769 21.2388 425.411 18.1325C425.3 16.0393 423.523 16.7995 422.325 18.1441C422.451 17.8358 422.581 17.519 422.704 17.1891C421.762 17.1253 420.82 17.0614 419.878 16.9959C420.117 17.7603 420.646 19.1215 419.952 19.7707C420.413 19.1066 420.084 17.6559 419.878 16.9959C418.723 16.3527 417.57 15.7094 416.416 15.0643C416.514 15.2708 416.779 16.0476 417.108 16.9271C416.22 15.6911 415.496 14.9251 414.287 13.6526C413.696 13.0316 411.384 10.0514 410.744 9.86565C406.826 8.7299 403.862 16.3924 399.083 15.3437C396.263 14.7253 397.58 13.9958 394.917 14.5131C393.458 12.6188 383.942 15.5974 383.576 17.3996C383.754 17.3516 383.89 17.3317 384.001 17.3284C382.929 17.713 381.995 18.3049 380.956 18.7053C378.351 19.7102 379.901 19.9721 376.944 18.2809C375.934 17.704 375.562 17.8847 375.169 17.8316C376.443 17.2596 377.056 13.3002 377.074 11.8885C377.12 8.51526 376.675 9.10717 377.99 6.68814C376.774 6.66904 375.916 6.56537 375.277 6.8547C375.46 6.28107 375.591 5.71814 375.588 5.17348C376.246 3.38951 375.666 1.28797 373.628 0.791399C370.546 0.0395085 369.942 4.46392 372.175 5.18848C370.039 4.49536 370.896 1.69669 367.987 1.31777C369.055 1.2631 369.716 1.46458 370.711 2.68653C371.04 2.02331 371.368 1.36092 371.697 0.697698C369.382 0.45563 368.312 0.25918 366.442 1.34684C364.612 1.67347 363.322 2.99899 361.941 4.29306C358.179 7.81721 354.801 11.2567 351.338 15.0802C349.559 11.425 347.595 8.76391 344.708 12.8543C342.101 16.5458 339.991 21.6483 338.636 25.9409C335.928 24.6982 337.07 24.2929 335.934 22.28C337.115 24.2406 335.914 24.6917 338.636 25.9409C338.906 25.0846 339.177 24.2274 339.448 23.371C337.077 20.6693 337.177 17.985 334.61 15.1042C334.326 16.0277 335.144 17.3433 335.287 18.1757C335.446 19.0983 334.423 19.7391 334.656 20.7314C335.615 20.3808 335.837 20.5921 335.868 20.976C335.834 20.593 335.608 20.3832 334.656 20.7314C334.276 19.1107 335.22 18.2494 334.692 16.4397C334.479 15.7085 334.17 15.1738 333.796 14.6565C335.429 11.925 330.147 10.0323 328.918 11.658C328.763 11.8628 328.658 12.0534 328.576 12.2375C326.514 11.3098 325.877 13.2837 324.915 14.766C324.686 15.2293 324.457 15.6936 324.228 16.1579C323.014 17.1551 321.887 19.2417 320.973 20.6071C319.017 23.526 318.198 27.7979 315.804 30.2302C315.886 28.6634 316.739 25.1899 313.926 26.5909C314.854 26.1282 314.989 25.5662 314.784 24.9146C314.96 25.0133 315.149 25.1028 315.369 25.1758C315.764 25.2147 316.161 25.2529 316.557 25.291C316.507 23.0726 315.053 21.6143 313.334 20.4346C313.334 21.0141 313.316 21.6102 313.353 22.1814C313.344 22.1606 313.334 22.1408 313.325 22.12C312.572 20.3136 312.891 19.7814 312.238 19.2277C312.494 19.289 312.788 19.3329 313.15 19.3503C311.047 15.7964 308.253 15.2285 304.39 16.23C304.653 16.2921 304.929 16.3452 305.209 16.3975C304.772 16.3983 304.348 16.4762 303.952 16.6693C302.452 17.3996 300.233 21.5978 299.191 23.0535C295.527 28.1768 293.822 34.454 291.903 40.3756C291.364 42.0419 290.546 45.9473 288.464 46.5061C286.042 47.156 283.477 43.2116 281.346 41.8934C274.527 37.6746 271.135 45.2493 270.085 51.2588C268.518 53.9174 268.879 55.9666 271.14 57.2259C270.507 56.3116 270.215 55.3374 270.096 54.3327C270.396 56.0404 271.821 56.6323 272.077 57.3636C272.218 57.7648 272.414 60.1987 272.409 60.6879C273.575 61.5571 273.662 62.1997 272.672 62.6157C272.067 63.0289 271.5 63.4914 270.971 64.0024C269.337 65.7247 269.352 68.1134 267.857 69.789C266.168 71.6841 264.616 70.8467 263.818 73.9621C262.452 79.2989 265.818 87.3581 271.877 87.8682C271.159 89.9698 270.228 92.1016 269.691 94.2563C268.978 97.124 269.027 97.4147 270.379 100.158C260.301 98.6598 261.089 109.328 266.833 114.568C268.193 115.81 269.684 116.584 271.44 117.134C272.711 117.532 276.548 117.31 277.462 118.516C279.387 121.057 275.089 124.362 274.708 127.198C274.67 127.489 274.654 127.987 274.666 128.565C273.079 130.508 273.158 130.668 275.425 132.484C276.668 134.085 280.506 133.702 281.673 135.232C283.468 137.587 279.465 141.378 281.471 144.13C283.068 146.316 284.732 144.953 287.287 145.88C288.524 146.445 289.76 147.011 290.995 147.58C291.574 147.178 292.206 146.925 292.895 146.823C294.337 147.55 292.96 148.828 294.78 149.256C295.724 149.554 297.908 150.687 298.862 150.1C297.508 150.933 296.6 152.992 295.822 155.255C295.082 156.465 294.399 157.797 294.672 158.797C294.216 160.183 293.749 161.447 293.192 162.328C296.337 162.807 295.966 165.77 298.144 167.396C301.085 169.913 301.575 167.577 300.88 166.349C301.173 166.498 301.476 166.692 301.788 166.913C301.847 166.954 301.215 168.45 301.835 168.799C302.703 169.289 302.703 168.797 303.606 168.788C304.456 168.778 305.689 167.502 306.728 167.395C307.281 167.338 308.915 168.094 309.253 167.87C310.195 167.246 310.122 166.561 309.756 165.733L310.177 166.574C311.19 169.221 311.701 168.625 313.237 167.867C312.822 168.071 314.442 166.863 314.775 166.96C314.018 164.862 311.017 165.082 309.167 164.557C310.339 164.889 312.241 164.902 313.319 165.366C315.123 166.143 314.553 166.933 316.689 167.176C317.588 167.277 321.256 166.281 321.903 165.628C321.965 165.566 322.008 165.49 322.041 165.406C322.374 164.875 322.707 164.343 323.038 163.811C324.394 163.968 322.926 166.052 325.054 165.223C326.643 164.602 325.869 163.739 325.363 162.798C325.198 162.489 325.012 162.269 324.816 162.111C327.012 162.637 329.623 165.592 332.621 164.765C334.312 164.298 334.406 163.144 335.646 162.065C337.302 160.623 337.815 160.845 339.822 160.148C341.036 159.725 342.33 158.793 343.552 158.575C345.543 158.221 344.994 158.441 346.644 159.28C347.63 159.781 348.192 160.723 349.437 160.904C350.575 161.071 352.36 159.763 353.281 160.122C355.786 161.101 355.148 164.617 355.29 166.935C342.611 162.899 327.789 169.349 318.456 178.208C315.926 180.609 314.27 183.457 312.021 186.068C309.582 188.902 307.281 190.189 306.938 194.226C306.643 197.707 308.212 199.797 306.973 203.142C305.784 206.347 304.487 209.216 303.618 212.558C299.465 228.517 299.336 245.09 296.258 261.269C293.41 276.24 289.343 289.577 282.642 303.3C279.535 309.662 276.931 313.557 270.117 316.24C264.604 318.41 260.569 315.565 257.874 310.616C250.625 297.297 249.594 283.599 249.682 268.742C249.723 261.606 250.537 254.468 251.225 247.372C251.938 240.018 251.404 233.147 250.892 225.804C249.865 211.081 246.507 198.453 241.452 184.607C239.056 178.039 237.034 171.637 231.262 167.364C228.028 164.972 224.781 161.979 220.991 159.91C217.959 158.254 216.153 156.759 212.696 156.017C210.422 155.53 208.349 154.778 206.153 154.07C200.971 152.404 194.977 151.888 189.541 151.906C176.849 151.949 162.92 156.222 151.496 161.702C145.807 164.429 139.631 168.492 135.883 173.667C134.338 175.803 133.284 178.172 132.234 180.575C130.977 183.447 131.372 183.973 128.711 183.873C127.044 183.81 125.179 182.267 123.269 182.185C121.178 182.095 119.648 182.824 117.702 183.363C115.232 184.048 112.91 184.661 110.713 186.081C105.384 189.522 100.876 195.007 96.8034 199.792C89.3475 208.55 82.602 218.365 75.627 227.287C68.7581 236.07 60.4137 243.865 49.7446 247.847C45.6748 249.366 41.168 249.673 37.0123 250.902C35.1886 251.44 32.98 252.871 31.0694 252.846C28.0673 252.808 28.2986 251.338 27.2592 248.955C26.0233 246.125 24.2361 243.921 22.0019 241.807C12.0925 232.425 -0.231202 246.327 0.533944 257.034C0.980965 263.291 5.67057 267.418 5.50511 273.558C5.3497 279.303 5.69251 285.131 7.74113 290.583C10.0411 296.697 15.697 303.04 20.6846 307.199C25.3047 311.053 31.0922 311.871 36.9127 312.515C39.5802 312.809 42.3482 313.603 44.928 313.556C47.1384 313.516 49.1486 312.621 51.4047 312.712C55.2332 312.866 57.2846 312.841 60.8717 311.483C63.5319 310.475 65.9315 309.916 68.8285 309.982C68.8285 316.086 69.2161 322.057 69.7408 328.14C69.8094 328.944 70.3652 331.031 69.9949 331.747C69.5397 332.631 68.9985 332.048 68.4299 332.684C67.0751 334.199 66.0933 334.945 65.0786 336.915C62.295 342.32 61.443 348.365 62.5281 354.391C63.3783 359.116 66.1564 361.062 65.5 366.081C64.7276 371.979 63.2914 377.998 63.0145 383.934C62.881 386.765 62.8481 388.903 62.2484 391.65C61.9029 393.245 60.7373 396.116 60.8315 397.728C60.89 398.723 61.9458 399.164 61.9476 400.076C61.9495 400.871 61.0307 400.765 60.9677 401.447C60.7748 403.503 60.6633 405.365 60.7071 407.432C60.7647 410.229 60.4914 413.008 60.5965 415.804C60.6761 417.934 60.1806 422.976 62.5711 422.145C61.933 423.649 61.7639 425.099 61.7008 426.544C61.6679 426.404 61.6542 426.26 61.667 426.114C61.8123 424.447 61.8617 423.818 62.5711 422.145L61.2063 422.619C60.3726 424.772 61.3964 426.881 61.6259 429.024C61.6185 429.238 61.6112 429.451 61.5975 429.668C61.4056 432.78 61.6405 435.827 61.8727 438.931C62.4029 446.02 62.6534 453.922 64.5704 460.292C66.672 467.275 66.0001 476.052 66.81 483.742C67.7379 492.544 69.2417 501.203 70.3615 509.972C71.3616 517.802 71.8443 526.297 73.5601 533.923C74.9679 540.167 76.1582 546.249 76.9132 552.813C77.9581 561.915 81.2792 568.849 84.9358 577.119C86.4817 580.62 86.5877 580.564 83.7502 583.121C82.5609 584.191 81.5526 585.444 80.3413 586.49C77.9161 588.587 75.2669 589.808 72.0819 590.185C64.2413 591.115 56.3201 593.901 51.9157 600.66C47.6585 607.195 50.4174 614.852 53.6033 621.509C49.3982 621.866 38.0279 621.608 40.6881 629.268C42.5064 634.505 52.2019 632.751 56.4847 632.808C62.743 632.892 69.0442 632.585 75.2477 632.5C78.0715 632.46 78.3594 632.168 81.1092 633.245C83.7008 634.258 85.6781 634.371 88.4828 634.185C91.4684 633.99 94.4522 634.429 97.3455 634C100.993 633.459 103.262 633.003 106.927 633.651C109.575 634.12 111.698 633.89 114.34 633.542C117.27 633.153 120.044 633.387 123.066 633.306C130.125 633.117 137.13 633.249 144.195 633.329C151.061 633.404 157.933 632.467 164.751 632.775C176.644 633.311 188.748 632.822 200.695 633.1C206.206 633.229 210.462 636.436 215.986 636.106C221.6 635.77 227.29 635.719 232.86 634.935C242.453 633.584 251.694 631.672 261.439 631.174C267.597 630.859 273.011 633.51 278.806 635.176C280.906 635.779 282.794 635.496 284.757 635.944C286.609 636.365 288.509 637.576 290.465 638.077C295.097 639.264 299.523 639.716 303.593 639.826C304.12 640.8 304.727 640.92 305.417 640.183C305.696 640.024 305.976 639.865 306.257 639.707C307.554 639.534 308.48 638.949 309.842 638.863C311.941 638.729 314.09 639.015 316.038 638.827C320.117 638.434 323.947 638.176 328.457 638.64C331.133 638.915 333.474 638.526 336.108 638.575C336.077 638.574 339.721 639.285 339.803 639.253C340.126 639.128 340.636 638.228 340.846 638.189C340.771 637.327 341.029 636.939 341.624 637.023C342.103 636.919 342.417 637.168 342.569 637.771C342.426 637.788 343.704 638.433 343.795 638.448C343.869 638.459 347.16 638.069 347.391 637.983C348.335 637.629 348.737 636.601 349.49 636.447C350.382 636.265 350.914 637.248 351.687 637.207C353.391 637.115 353.19 636.356 354.5 636.12C359.099 635.29 364.73 636.368 369.481 636.375C374.214 636.384 378.921 635.95 383.48 635.75C389.084 635.503 394.573 636.567 400.22 635.812C405.591 635.093 410.963 634.78 416.373 634.553C427.681 634.076 439.284 634.58 450.487 633.25C462.153 631.867 474.012 633.249 485.695 633.042C498.013 632.822 510.398 632.71 522.712 632.205C534.968 631.702 547.174 630.243 559.381 629.95C562.487 629.876 565.537 629.135 568.631 628.911C571.464 628.705 574.249 629.156 577.105 628.906C582.305 628.451 587.036 628.799 592.262 628.719C598.107 628.63 603.786 627.739 609.6 627.38C615.477 627.018 621.299 627.847 627.128 626.688C630.314 626.054 636.259 621.689 632.193 618.032Z" fill="black"/>
<path fill-rule="evenodd" clip-rule="evenodd" d="M401.412 98.0574C401.403 98.0574 401.396 98.0583 401.389 98.0574C401.359 98.0912 401.328 98.1278 401.301 98.1598L401.412 98.0574Z" fill="black"/>
<path fill-rule="evenodd" clip-rule="evenodd" d="M450.096 71.1411C450.834 68.5741 448.964 66.7358 447.712 64.742C446.974 69.2652 444.709 69.0696 450.096 71.1411Z" fill="black"/>
<path fill-rule="evenodd" clip-rule="evenodd" d="M314.478 167.508C314.497 167.56 314.522 167.606 314.537 167.661C314.558 167.571 314.534 167.523 314.478 167.508Z" fill="black"/>
<path fill-rule="evenodd" clip-rule="evenodd" d="M294.07 164.12C294.238 164.498 294.606 167.112 294.872 167.125C297.241 167.238 294.354 162.815 292.84 162.556C290.65 163.97 294.122 164.237 294.07 164.12Z" fill="black"/>
<path fill-rule="evenodd" clip-rule="evenodd" d="M293.943 148.844C293.787 146.847 293.115 146.593 291.201 147.564C291.773 148.82 292.454 148.64 293.943 148.844Z" fill="black"/>
<path fill-rule="evenodd" clip-rule="evenodd" d="M267.433 99.9378C268.347 100.09 269.262 100.242 270.175 100.394C269.638 99.1763 269.101 97.9559 268.564 96.7374C268.187 97.8051 267.81 98.871 267.433 99.9378Z" fill="black"/>
<path fill-rule="evenodd" clip-rule="evenodd" d="M286.199 501.245C286.2 501.243 286.2 501.241 286.202 501.239C286.133 501.265 286.123 501.271 286.199 501.245Z" fill="black"/>
<path fill-rule="evenodd" clip-rule="evenodd" d="M99.6966 252.279C101.633 249.042 105.304 245.042 109.484 246.388C113.388 247.646 114.468 252.764 116.151 255.984C119.424 262.243 120.443 255.522 121.168 251.723C120.577 244.114 117.617 231.73 107.603 233.042C99.9864 234.042 93.4091 246.277 94.8598 253.512C96.0784 259.593 98.1352 254.89 99.6966 252.279Z" fill="black"/>
<path fill-rule="evenodd" clip-rule="evenodd" d="M388.345 108.884C384.605 107.549 384.609 111.59 384.464 114.627C384.332 117.418 384.764 123.965 388.287 124.962C391.797 125.956 392.128 120.174 392.671 117.837C391.853 115.062 391.401 109.974 388.345 108.884Z" fill="black"/>
<path fill-rule="evenodd" clip-rule="evenodd" d="M392.672 102.82C389.927 100.394 388.094 99.6507 384.588 101.218C382.783 102.024 380.206 103.778 379.923 105.99C379.041 112.876 390.253 104.232 392.672 102.82Z" fill="black"/>
<path fill-rule="evenodd" clip-rule="evenodd" d="M393.244 144.066C399.641 145.719 400.05 136.975 392.936 136.96C388.176 136.951 389.671 143.142 393.244 144.066Z" fill="black"/>
<path fill-rule="evenodd" clip-rule="evenodd" d="M344.343 116.884C341.955 117.233 341.111 118.731 341.623 121.122C342.214 123.881 343.71 123.904 346.388 124.162C352.841 124.182 348.629 116.258 344.343 116.884Z" fill="black"/>
<path fill-rule="evenodd" clip-rule="evenodd" d="M400.986 102.077C401.576 103.715 404.783 104.455 406.46 103.83C408.454 103.087 408.868 101.282 407.069 99.6233C405.527 98.2036 403.403 98.5784 401.474 98.7101C401.538 99.3299 400.618 101.059 400.986 102.077Z" fill="black"/>
<path fill-rule="evenodd" clip-rule="evenodd" d="M200.298 288.71C203.349 288.705 200.47 283.545 197.957 283.225C198.01 284.821 197.905 288.714 200.298 288.71Z" fill="black"/>
</svg>
