<svg width="237" height="125" viewBox="0 0 237 125" fill="none" xmlns="http://www.w3.org/2000/svg">
<path fill-rule="evenodd" clip-rule="evenodd" d="M43.053 76.4322L43.6922 84.4496L55.8388 87.3357L65.1086 91.5047L72.4604 97.9186L75.9766 95.0324L80.4516 85.091L85.5659 84.1289L104.105 86.0531L110.499 87.9771L108.261 98.8807L106.023 106.898L143.102 104.653L141.824 86.0531L134.152 69.0565L103.786 54.3047L81.0908 57.191L65.1086 74.8288L58.0763 78.6771L45.6102 78.0357" fill="#FF5678"/>
<path fill-rule="evenodd" clip-rule="evenodd" d="M25.3657 92.4006C25.3657 93.7088 26.1756 93.6259 27.1566 93.5256C27.491 93.4913 27.8454 93.4549 28.1945 93.4713C28.4073 93.4811 28.7664 93.5439 29.1923 93.6185L29.1925 93.6188C30.4389 93.8372 32.2581 94.1562 32.663 93.5395C33.0502 92.9495 32.5106 92.869 31.9602 92.7871C31.5891 92.732 31.2133 92.676 31.1138 92.4625C30.8493 91.8944 31.3679 91.5004 31.8721 91.1171C32.3193 90.777 32.7554 90.4456 32.6238 90.0089C32.4912 89.5686 31.899 89.8186 31.2596 90.0887C30.5499 90.3883 29.7821 90.7124 29.5198 90.1449C29.2698 89.6041 29.8449 89.1029 30.367 88.6476C30.8085 88.2626 31.2124 87.9106 31.0472 87.5955C30.7412 87.0126 27.6395 88.4881 27.2434 88.7418C26.1228 89.459 25.3148 91.0713 25.3657 92.4006ZM163.889 61.3058C164.365 61.819 164.727 62.4237 165.087 63.0235C165.447 63.624 165.804 64.2197 166.269 64.7143C166.67 65.1399 167.13 65.3053 167.606 65.4763V65.4765C167.821 65.5538 168.04 65.6326 168.258 65.7373C168.68 65.9396 169.117 66.159 169.565 66.3836C171.289 67.2488 173.175 68.1952 174.968 68.5675C173.646 67.0203 172.807 65.6204 172.021 63.7402C171.941 63.5484 171.855 63.3535 171.769 63.1566C171.551 62.6632 171.328 62.1578 171.178 61.6587C171.02 61.1333 170.989 60.5917 170.959 60.0528C170.932 59.5663 170.905 59.0819 170.783 58.6135C170.715 58.3493 170.687 58.1453 170.667 57.9941L170.666 57.9934V57.9931C170.642 57.8143 170.628 57.7099 170.568 57.6673C170.485 57.6071 170.313 57.67 169.899 57.8214L169.865 57.8334L169.815 57.852L169.761 57.8715C169.401 58.0022 169.067 58.2803 168.742 58.5513C168.539 58.7214 168.338 58.8884 168.136 59.0149C167.514 59.4051 166.865 59.7135 166.218 60.0208C165.42 60.4002 164.626 60.7779 163.889 61.3058ZM224.422 33.5273C224.467 34.0131 231.013 31.677 231.659 31.2484C232.867 30.4468 234.283 26.7579 232.998 25.6645C231.841 24.6803 229.297 25.8795 227.457 26.7476C226.829 27.0434 226.284 27.3007 225.902 27.4201C223.375 28.21 220.463 28.6547 217.829 28.3856C216.635 28.2633 215.459 28.1618 214.253 28.0872C214.05 28.0747 213.816 28.0429 213.565 28.0086C212.702 27.8912 211.649 27.7476 211.047 28.287C210.313 28.9446 210.402 30.2535 210.776 31.071C210.905 31.3531 211.061 31.5089 211.211 31.6593C211.343 31.7909 211.47 31.9184 211.572 32.1224C211.599 32.177 211.585 32.2469 211.567 32.3313C211.539 32.4651 211.504 32.6354 211.615 32.8384C212.115 33.7508 213.814 35.2756 214.73 35.7401C215.608 36.1855 215.928 35.9113 216.415 35.4935C216.58 35.3521 216.764 35.1941 216.996 35.0422C218.59 33.9969 221.079 33.8 223.17 33.6346C223.609 33.5999 224.03 33.5666 224.422 33.5273ZM209.267 33.8098C207.372 36.1232 205.143 37.7315 202.806 39.4179L202.806 39.4184C202.344 39.7518 201.878 40.088 201.409 40.4336C200.776 40.9006 200.15 41.3773 199.524 41.8536L199.524 41.8539H199.524L199.524 41.8541L199.523 41.8544L199.523 41.8546V41.8548C197.665 43.269 195.812 44.6802 193.775 45.8319C193.555 45.9561 193.297 46.0662 193.035 46.1778C192.343 46.4723 191.626 46.778 191.521 47.3874C191.43 47.9175 192.059 49.0464 192.586 49.9909C192.844 50.4544 193.078 50.8735 193.19 51.1555C194.194 53.6903 194.967 56.2832 195.745 58.8946C195.854 59.259 195.963 59.6235 196.072 59.9885L196.262 59.6935C198.865 55.634 201.504 51.521 204.693 47.8534C207.577 44.5381 210.534 41.0691 213.055 37.4967C211.529 36.5674 210.265 35.2858 209.267 33.8098ZM187.161 3.40236C184.49 3.29522 183.675 5.47551 182.896 7.56309C182.589 8.38306 182.288 9.18884 181.883 9.83586C181.087 11.1037 180.029 12.465 178.854 13.4137C177.963 14.1321 176.895 14.5558 175.83 14.9782C175.307 15.1854 174.786 15.3926 174.286 15.6338C172.912 16.2975 171.69 16.9626 170.832 18.2432C170.751 18.365 170.659 18.4939 170.565 18.6282C169.969 19.4692 169.219 20.5292 169.647 21.5137C169.944 22.197 170.751 22.7611 171.544 23.3149C172.107 23.7072 172.661 24.0945 173.021 24.5155C174.05 25.7175 174.195 25.6828 175.355 25.4037C175.544 25.3582 175.76 25.3066 176.01 25.2525C176.905 25.0595 177.754 24.9993 178.669 25.0314C178.78 25.035 178.97 25.0705 179.191 25.1114C179.705 25.207 180.386 25.3335 180.615 25.1632C180.893 24.9573 180.807 24.3217 180.731 23.7694C180.693 23.4861 180.657 23.2246 180.675 23.0539C180.757 22.288 181.029 21.4976 181.287 20.7755C182.16 18.3268 183.707 16.5905 185.318 14.7816L185.32 14.7801L185.321 14.7784L185.323 14.7764L185.324 14.7747C185.598 14.468 185.873 14.1588 186.147 13.8439C187.149 12.693 188.332 11.7114 189.516 10.7307C190.73 9.72382 191.944 8.71794 192.957 7.5308C194.061 6.23701 193.558 5.32238 192.043 4.7167C191.616 4.54596 191.147 4.47037 190.68 4.39503C190.306 4.3346 189.932 4.27418 189.581 4.16508C189.303 4.07898 189.036 3.96474 188.77 3.85075C188.253 3.62888 187.739 3.40896 187.161 3.40236ZM42.5111 94.7511C43.0319 94.7511 43.5493 94.5386 44.0603 94.3284C44.6119 94.1014 45.1562 93.8776 45.6902 93.9272C45.948 93.9515 46.2379 94.1956 46.5121 94.4268C46.6887 94.5755 46.859 94.7188 47.0099 94.7947C47.5573 95.0686 48.1483 95.2051 48.7518 95.28C49.1501 95.3292 49.5004 95.3297 49.8247 95.3299C50.5713 95.3306 51.1789 95.3311 51.9096 95.928C52.6745 96.5527 53.4642 97.3404 54.1985 98.0728C54.3673 98.2413 54.5334 98.4067 54.6953 98.5667C56.0386 99.8928 57.2091 101.478 58.3571 103.033C58.7903 103.619 59.2203 104.202 59.655 104.764C61.6142 107.298 63.6489 109.309 66.2553 111.207C68.3145 112.706 70.4007 113.693 72.7197 114.789L72.9313 114.889C75.2894 116.005 78.2554 117.299 80.9308 117.36C83.0649 117.409 85.7324 116.725 87.6745 115.814C88.606 115.377 89.0485 115.301 89.8088 115.17C89.9707 115.142 90.1468 115.112 90.345 115.075C92.0375 114.761 93.9874 113.873 95.5811 113.147L95.754 113.069C100.854 110.749 104.085 105.691 106.385 100.742C107.694 97.9246 108.511 95.1719 109.057 92.1239C109.085 91.9654 109.113 91.8181 109.139 91.6814C109.386 90.3864 109.458 90.0082 107.995 89.3871C106.701 88.8379 105.325 88.4549 103.963 88.0759C103.605 87.9764 103.249 87.8771 102.895 87.7751C97.9064 86.3387 92.2207 86.0219 87.0698 86.2413C86.7628 86.2543 86.4548 86.2755 86.1468 86.2968H86.1463H86.1461H86.1456H86.1454H86.1449C85.6407 86.3318 85.1358 86.3665 84.6324 86.3661C84.4675 86.3658 84.2295 86.3357 83.969 86.3032C83.4501 86.2379 82.8425 86.1616 82.5463 86.2866C81.8445 86.5838 81.2483 87.9292 80.8239 88.8869L80.8237 88.8871L80.8234 88.8878L80.8232 88.8883C80.7102 89.1432 80.6094 89.3707 80.522 89.5434C79.8102 90.9519 79.1783 92.3967 78.5467 93.8409V93.8411C77.9839 95.1278 77.4215 96.414 76.8026 97.6738C76.1196 99.0647 75.0996 99.9794 73.4875 100.002C71.8889 100.024 71.0396 99.1198 70.0704 98.0882C69.9449 97.9544 69.817 97.8184 69.6854 97.6822C67.3999 95.3135 64.3236 93.2775 61.4865 91.63C58.4221 89.8512 54.7682 88.1271 51.2795 87.4989C50.9184 87.4341 50.485 87.3355 50.005 87.2266C47.3961 86.6342 43.4132 85.7296 42.2195 88.1912C42.2437 88.1877 42.2706 88.1841 42.2995 88.1802L42.3056 88.1794H42.3059C43.1383 88.0662 45.7031 87.7171 45.8159 88.8947C45.8565 89.3189 45.1527 89.5804 44.343 89.881C43.402 90.2306 42.3181 90.6332 42.093 91.406C42.2679 91.3923 42.528 91.348 42.8337 91.2959C44.0776 91.084 46.0835 90.7425 46.2562 91.8005C46.3479 92.3614 45.5463 92.6995 44.992 92.9334C44.8541 92.9916 44.7313 93.0432 44.6415 93.0904C43.7498 93.5593 43.2129 94.0464 42.5111 94.7511ZM139.358 52.8811C138.664 52.3921 137.424 52.3216 136.362 52.2612C135.969 52.2389 135.6 52.2179 135.292 52.1778L135.284 52.1768H135.284V52.1766C133.831 51.9865 132.418 51.8016 130.95 51.8818C130.42 51.9109 129.88 51.9283 129.337 51.9459C127.777 51.9965 126.187 52.0481 124.691 52.3774C122.163 52.9329 119.77 53.7862 117.486 54.9833C117.441 55.0066 117.396 55.03 117.35 55.054L117.348 55.055C116.6 55.4425 115.651 55.9347 115.657 56.9828C115.663 57.8322 115.938 57.8794 116.587 57.9909C116.737 58.0169 116.908 58.0462 117.1 58.09C119.236 58.5761 121.248 59.7852 123.188 60.9511C123.742 61.284 124.29 61.6132 124.833 61.9212C127.434 63.3948 130.024 65.0509 132.438 66.817C137.064 70.2028 139.705 75.0739 141.76 80.3692C142.823 83.1077 143.593 86.3059 143.913 89.2247C144.106 90.9857 144.107 92.7518 144.108 94.5173V94.5178C144.109 96.008 144.11 97.4972 144.226 98.9821C144.234 99.0841 144.243 99.2264 144.253 99.3979V99.3982C144.322 100.517 144.466 102.871 144.967 103.284C145.273 103.537 146.426 103.298 147.304 103.117C147.684 103.038 148.012 102.97 148.197 102.957C149.589 102.862 150.984 102.823 152.372 102.784H152.372C153.544 102.752 154.71 102.72 155.863 102.653C158.506 102.501 161.182 102.53 163.864 102.559C166.581 102.588 169.304 102.618 172.006 102.459C174.707 102.3 177.322 101.92 179.97 101.375C180.715 101.222 181.514 101.11 182.33 100.995H182.33C184.212 100.731 186.179 100.454 187.745 99.6381C192.068 97.3859 194.703 91.9561 194.892 87.3585C195.098 82.3748 194.758 76.9516 193.711 71.9868C193.581 71.3677 193.454 70.7559 193.329 70.148C192.927 68.1999 192.533 66.294 192.041 64.3332C191.4 61.7789 190.689 59.2343 189.983 56.7072L189.977 56.6856C189.889 56.3703 189.801 56.0555 189.713 55.7409C189.155 53.7389 188.469 51.7932 187.784 49.8493V49.849V49.8488H187.783V49.8485V49.8483C186.793 47.0376 185.803 44.2306 185.202 41.2641C184.641 38.5036 183.848 35.6173 183.019 32.9228C182.714 31.9299 182.112 30.0434 181.401 29.289C180.836 28.6894 180.34 28.8037 179.65 28.9624C179.429 29.0135 179.187 29.0691 178.917 29.107C178.45 29.1728 177.881 29.1645 177.291 29.1561C175.529 29.1312 173.578 29.1036 173.579 31.0253C173.58 31.8482 173.739 32.6948 173.899 33.5373V33.5375V33.5378V33.538L173.899 33.5383V33.5385V33.539V33.5392V33.5395C174.012 34.1368 174.124 34.7323 174.179 35.3162C174.245 36.0177 174.264 36.7213 174.283 37.4245V37.4248V37.425V37.4253V37.4255V37.4258V37.426V37.4263V37.4265C174.309 38.3879 174.334 39.3492 174.48 40.3047C174.567 40.8673 174.661 41.4209 174.755 41.9701L174.755 41.972C175.108 44.0366 175.449 46.0366 175.29 48.2103C175.208 49.3287 175.07 50.4305 174.931 51.5305C174.7 53.3737 174.469 55.2116 174.505 57.1122C174.512 57.4601 174.516 57.8065 174.519 58.1511C174.545 60.6693 174.57 63.1045 175.777 65.4354C176.013 65.8904 176.23 66.3779 176.448 66.8664V66.8667C176.766 67.5795 177.085 68.2948 177.463 68.9161C178.21 70.1431 178.857 70.5025 180.191 70.9966C180.386 71.0688 180.648 71.1461 180.942 71.2329C181.905 71.5176 183.211 71.9037 183.626 72.5431C184.408 73.7469 183.364 74.2339 182.336 74.1928C179.736 74.0896 177.079 73.1209 174.568 72.205L174.567 72.2048L174.566 72.2045L174.566 72.2043L174.564 72.2038L174.559 72.2021C174.006 72.0005 173.461 71.8014 172.924 71.615C172.066 71.3163 171.227 70.9707 170.39 70.6253L170.39 70.625C169.861 70.4066 169.332 70.1884 168.799 69.9827C168.491 69.864 168.2 69.7669 167.918 69.6732C167.19 69.4308 166.522 69.2087 165.802 68.6862C164.542 67.7737 163.431 66.681 162.32 65.5881C161.28 64.5656 160.24 63.5426 159.078 62.6671C154.53 59.2395 149.077 57.1932 143.365 56.5861C141.895 56.4298 140.757 56.5 139.285 56.6247C139.068 56.6431 138.851 56.6582 138.635 56.6734C138.04 56.7147 137.449 56.7558 136.858 56.8654C136.695 56.8958 136.375 57.0173 136.012 57.1553C135.337 57.4114 134.514 57.7238 134.277 57.6113C131.914 56.488 138.605 53.0682 139.358 52.8811ZM43.0466 76.6016C43.0473 76.5901 43.048 76.5786 43.049 76.5673C43.0534 76.583 43.0578 76.5984 43.062 76.6138L43.0466 76.6016ZM43.1417 76.8812C43.1146 76.7948 43.0882 76.7055 43.062 76.6138C43.5439 76.9966 43.9803 77.4152 44.415 77.8325H44.4152L44.4155 77.833C44.9977 78.3915 45.5769 78.9475 46.2589 79.4108C47.6775 80.3743 49.3644 80.8841 51.0454 81.2447C54.1374 81.9081 58.3634 81.7423 61.3116 80.4384C64.0371 79.2329 65.7597 77.058 67.2759 74.5331C67.5022 74.1559 67.6352 73.7454 67.7634 73.3494C68.0393 72.4971 68.2935 71.7129 69.41 71.4758C70.17 71.3144 71.0785 71.6143 72.0002 71.9186C72.7488 72.1654 73.5059 72.4154 74.1991 72.4235C75.6994 72.4406 77.6451 71.7566 78.8706 70.833C79.2835 70.5216 79.5771 69.9115 79.8564 69.331V69.3307C80.1439 68.7331 80.4164 68.1666 80.7887 67.9893C81.0817 67.8498 81.5634 68.0563 81.9802 68.2351C82.1769 68.3192 82.3591 68.3975 82.5003 68.4301C83.2723 68.6091 84.0406 68.6651 84.8154 68.4619C85.8188 68.1984 87.4489 67.4743 88.2315 66.7892C88.6512 66.4217 88.8983 65.6827 89.1363 64.9714C89.3802 64.2427 89.6141 63.5433 90.0138 63.3031C90.3484 63.1022 90.9247 63.2564 91.5111 63.4129C91.959 63.5325 92.4128 63.6536 92.7692 63.6196C95.4206 63.3664 97.2286 61.8486 98.2477 59.4161C98.324 59.2336 98.4052 58.8385 98.4984 58.3848V58.3845C98.6838 57.4819 98.9169 56.3473 99.2555 56.1947C99.4553 56.1049 100.515 56.4904 101.283 56.77C101.625 56.8941 101.908 56.9973 102.034 57.0288C104.614 57.6758 107.849 59.0538 110.086 60.4511C111.8 61.5223 113.761 62.2302 115.708 62.9335L115.709 62.9337H115.709L115.709 62.9339C116.815 63.3329 117.916 63.7307 118.966 64.1925C121.383 65.2551 123.739 66.5308 125.969 67.8892C128.593 69.4875 130.972 71.106 133.111 73.3349L133.201 73.4281L133.319 73.5507C135.354 75.6693 137.729 78.1417 138.611 80.9759C138.942 82.0375 139.054 83.1784 139.166 84.311V84.3112V84.3115V84.3117C139.228 84.9411 139.289 85.5681 139.388 86.1772C139.566 87.2716 139.843 88.3323 140.12 89.3952C140.275 89.9886 140.43 90.5828 140.569 91.1838C141.299 94.3654 141.591 98.1308 141.569 101.403C141.567 101.677 141.582 101.932 141.595 102.167C141.648 103.093 141.683 103.709 140.622 103.95C139.766 104.144 138.598 103.902 137.515 103.678C136.953 103.562 136.415 103.45 135.955 103.407C134.795 103.297 133.665 103.328 132.529 103.36H132.528H132.528H132.527H132.527H132.526C131.927 103.377 131.325 103.394 130.717 103.39C130.21 103.387 129.692 103.356 129.171 103.325C128.052 103.259 126.915 103.192 125.823 103.393C123.877 103.751 121.858 103.831 119.826 103.912C119.058 103.942 118.288 103.973 117.52 104.019C116.666 104.069 115.812 104.075 114.958 104.079C113.917 104.086 112.875 104.091 111.835 104.181C111.706 104.192 111.403 104.246 111.016 104.316C109.812 104.533 107.791 104.899 107.619 104.559C107.424 104.172 108.333 102.536 109.029 101.283C109.341 100.721 109.61 100.237 109.718 99.9767C110.376 98.383 110.963 96.7506 111.283 95.051C111.825 92.1738 112.017 89.3918 112.04 86.4977C112.067 83.151 111.486 79.9976 110.583 76.7968C110.561 76.719 110.533 76.5969 110.498 76.4445C110.25 75.3724 109.655 72.7973 108.443 73.5749C107.712 74.0441 108.132 76.0908 108.367 77.2378C108.423 77.5103 108.469 77.732 108.486 77.8697C108.568 78.5284 108.681 79.1821 108.793 79.835C108.966 80.8421 109.14 81.8482 109.202 82.8707C109.214 83.061 109.238 83.2863 109.265 83.528C109.341 84.2315 109.433 85.0745 109.264 85.6031C109.206 85.7875 109.179 85.9206 109.16 86.0155C109.139 86.1202 109.128 86.1782 109.093 86.207C109.048 86.2432 108.967 86.234 108.784 86.2132C108.695 86.2029 108.581 86.1899 108.436 86.1782C107.689 86.1178 106.829 85.6146 106.009 85.1349C105.473 84.8205 104.953 84.5165 104.494 84.3536C103.016 83.8289 101.556 83.5145 100.023 83.2364C96.7129 82.6363 93.3959 82.4167 90.0284 82.4272C89.2175 82.4299 88.3682 82.5735 87.5209 82.7168H87.5206C86.5326 82.8837 85.5477 83.0502 84.6304 82.9923C84.5636 82.9881 84.4981 82.9837 84.4333 82.9795C83.2872 82.9062 82.4369 82.8516 81.124 83.0965C81.3347 81.9443 81.8474 80.845 82.3606 79.7447C82.944 78.4939 83.5282 77.2417 83.6698 75.9088C84.0304 72.5154 81.2077 74.811 80.2645 76.1591C78.9053 78.1016 77.8212 80.1495 77.4777 82.5515C77.4129 83.0052 77.4702 83.4627 77.5264 83.913C77.5883 84.4062 77.649 84.891 77.5472 85.3538C77.4212 85.9253 77.0093 86.5559 76.615 87.1596C76.3726 87.5307 76.1367 87.8917 75.978 88.2227C75.0044 90.2506 74.3266 92.3756 73.6876 94.5268C73.6375 94.6958 73.5978 94.8539 73.5616 94.9977V94.9979C73.3738 95.7475 73.2815 96.1156 72.2935 95.6655C71.8366 95.4573 71.478 95.0525 71.125 94.654C70.9205 94.4233 70.7182 94.1946 70.4995 94.0075C67.5973 91.5214 64.5357 89.2144 61.1834 87.3081C57.6812 85.3164 54.267 84.3871 50.2971 83.9685C50.0767 83.9453 49.8211 83.9243 49.5424 83.901H49.5419H49.5417C47.9478 83.7689 45.6063 83.5749 44.8521 82.5874C44.187 81.7171 43.8687 80.1596 43.5806 78.7488C43.4394 78.0585 43.3056 77.4034 43.1417 76.8812ZM45.3993 75.921C44.3597 75.4201 43.1769 74.8503 43.049 76.5673C42.9106 76.0737 42.7848 75.512 42.6532 74.9257C42.2895 73.3024 41.8836 71.4917 41.0559 70.4227C40.824 70.1236 40.5395 70.0321 40.2765 69.9474C40.0695 69.8809 39.8758 69.8185 39.7315 69.6625C39.3893 69.2919 39.346 68.5015 39.3115 67.8748V67.8745V67.8743C39.2992 67.6492 39.288 67.4455 39.2645 67.2894C39.2087 66.9178 39.1503 66.5524 39.0923 66.1906L39.092 66.1893V66.1891V66.1886C38.8044 64.3921 38.5314 62.6893 38.6892 60.8038C38.694 60.7453 38.6977 60.6438 38.7026 60.5152C38.7256 59.9127 38.7711 58.7152 39.0512 58.5465C39.323 58.3828 40.0921 58.6 40.7276 58.7793V58.7796C41.0532 58.8713 41.3438 58.9535 41.5145 58.9694C42.5312 59.0641 43.5549 59.1949 44.5808 59.3258H44.5811C47.4879 59.6969 50.413 60.0704 53.2477 59.635C56.69 59.1066 59.9919 57.9895 63.1655 56.5599C63.2338 56.9371 63.4114 57.2399 63.6978 57.4682C63.7979 57.3212 63.8857 57.1822 63.9684 57.0518C64.4041 56.3642 64.6908 55.9112 65.8192 55.7343C66.6756 55.6 67.8603 55.8662 68.5704 56.4009C71.3187 58.4687 68.1851 60.5073 66.3781 61.4349C68.6115 63.8916 69.3153 69.0927 66.7443 71.603C66.3776 71.9611 66.0097 72.2892 65.6453 72.6145L65.6448 72.6148C64.9948 73.1948 64.3546 73.7657 63.749 74.481C62.759 75.65 61.9674 76.558 60.5332 76.9776C60.3632 77.0272 60.188 77.0793 60.009 77.1324C58.5941 77.5522 56.9319 78.0453 55.5515 78.1172C54.5371 78.1701 53.4488 77.9597 52.3998 77.7569H52.3996C51.9179 77.6637 51.4446 77.5722 50.9903 77.5084C49.1956 77.2569 47.4568 76.857 45.7978 76.1089C45.6691 76.0509 45.5356 75.9866 45.3993 75.921ZM41.1011 97.0804C41.2053 97.2081 41.402 97.4246 41.6552 97.7039C43.1706 99.3735 46.7212 103.285 44.7804 103.854C43.9495 104.098 42.6324 102.734 41.7026 101.771C41.4086 101.466 41.1532 101.201 40.9639 101.041C39.7437 100.003 38.4656 99.3206 36.9776 98.748C33.3459 97.3507 30.0602 96.0948 26.1054 96.675C25.5387 96.7582 24.931 96.8974 24.3099 97.0398C23.0726 97.3233 21.7808 97.6193 20.647 97.5092C18.9329 97.3429 19.3769 95.814 20.4489 94.9605C20.8121 94.6714 21.2297 94.5226 21.6309 94.3798C22.2877 94.1457 22.9007 93.9272 23.1619 93.1332C23.3474 92.5686 23.3647 91.939 23.3823 91.3008C23.4051 90.4786 23.4283 89.6422 23.8116 88.9133C24.3933 87.8074 25.7644 86.6598 26.8229 86.0192C26.9765 85.926 27.1668 85.8423 27.3613 85.757C27.7505 85.586 28.1558 85.4079 28.3166 85.1334C28.4655 84.8793 28.0396 83.7178 27.7723 82.9886V82.9883C27.6847 82.7501 27.6143 82.5578 27.5864 82.4587C27.4425 81.9458 27.295 81.4328 27.1478 80.9193C26.7285 79.46 26.3085 77.9971 25.9618 76.5235C25.5274 74.6771 25.4144 73.7204 27.3591 73.0504C28.9572 72.4995 30.5971 72.1065 32.2339 71.7143C33.6368 71.3782 35.0375 71.0426 36.4078 70.6084C36.0531 69.6845 35.1901 69.9071 34.3036 70.136C33.8746 70.2468 33.4401 70.3591 33.0548 70.3435C31.6074 70.2853 29.9325 69.809 28.5541 69.3643C25.4249 68.3542 23.2957 65.8364 22.8121 62.5895C22.7674 62.2904 22.8006 61.8647 22.8351 61.4249C22.8823 60.818 22.9317 60.1844 22.7815 59.8192C22.6103 59.4026 22.2199 59.136 21.8275 58.8679C21.6595 58.7532 21.4912 58.6382 21.3395 58.511C20.0364 57.4188 18.8823 55.9195 18.1793 54.3676C17.4748 52.8123 17.4256 51.0653 17.8351 49.4239C17.8681 49.291 17.8992 49.1751 17.9268 49.0711C18.0883 48.4672 18.1411 48.2695 17.8691 47.54C17.6974 47.0797 17.475 46.6428 17.2522 46.2047C16.9963 45.7015 16.7394 45.1968 16.5574 44.6535C16 42.9884 15.6959 41.1934 15.7262 39.4351C15.749 38.1347 16.1005 37.3071 16.4877 36.3957C16.6878 35.9245 16.8972 35.4311 17.0758 34.8384C17.3234 34.0172 17.2206 33.0082 17.1186 32.0038C17.0501 31.3294 16.9816 30.6569 17.0198 30.0451C17.1406 28.096 17.6396 26.5299 18.501 24.7951C19.8243 22.1295 21.92 19.2721 24.648 17.8743C24.8963 17.7468 25.2187 17.6747 25.5411 17.6025C25.9183 17.5179 26.296 17.4335 26.5558 17.2601C27.0325 16.9423 27.1595 16.5044 27.3097 15.9861C27.3484 15.8533 27.3882 15.7153 27.4359 15.5727C27.9951 13.9046 28.6933 12.5533 29.9024 11.2779C33.8242 7.1421 40.696 5.67732 46.2071 6.0264C46.5622 6.0489 46.9113 6.12375 47.2562 6.19763C47.8729 6.32972 48.4766 6.45888 49.0784 6.28251C49.4324 6.17855 49.7981 5.93001 50.166 5.68026C50.4732 5.47135 50.7819 5.26171 51.0867 5.13402C51.9348 4.77932 52.7844 4.57164 53.6968 4.48089C55.4987 4.30134 56.9642 4.49116 58.6249 5.09953C59.1171 5.28006 59.5926 5.47331 60.0733 5.66876L60.0738 5.669C60.2054 5.72257 60.3375 5.77615 60.4703 5.82972C61.2157 6.13085 61.359 6.09244 61.7944 5.976C61.929 5.94004 62.0914 5.8965 62.3079 5.85345C64.1367 5.48921 65.1873 5.75878 66.8077 6.53912C66.9657 6.61519 67.1572 6.68417 67.3549 6.75511H67.3551C67.6976 6.8784 68.0584 7.00805 68.2937 7.1925C68.5323 7.37987 68.7067 7.74069 68.8808 8.10077C69.0902 8.53374 69.2991 8.96574 69.6186 9.09343C69.827 9.17709 70.3146 9.00977 70.748 8.86129C70.99 8.77836 71.215 8.70131 71.365 8.67685C71.8559 8.59686 72.34 8.61692 72.8253 8.63697C73.07 8.647 73.3148 8.65728 73.5611 8.65458C74.8618 8.6404 76.2368 8.68883 77.4244 9.30381C78.169 9.68933 79.0399 10.3728 79.7552 10.9342C79.8992 11.0472 80.037 11.1553 80.1659 11.2549C80.5781 11.5731 80.9306 12.001 81.2845 12.431C81.8462 13.113 82.4122 13.8004 83.2285 14.0648C83.4991 14.1524 83.7809 14.1485 84.0641 14.1446C84.3264 14.1412 84.5898 14.1375 84.8457 14.2067C85.5394 14.3941 86.2055 14.8965 86.7674 15.3403C87.1708 15.659 87.5482 16.1536 87.9228 16.6446C88.4455 17.3295 88.9621 18.0069 89.5358 18.1877C89.8614 18.2902 90.2762 18.2889 90.7036 18.2877C91.1388 18.2862 91.5867 18.285 91.9658 18.3931C92.9093 18.6622 93.6914 19.0524 94.3907 19.7662C95.7249 21.128 96.1016 23.1412 96.1589 24.9878C96.1635 25.1417 96.1376 25.3819 96.1082 25.6537C96.0424 26.2613 95.9595 27.0255 96.1657 27.3308C96.3056 27.5382 96.6508 27.6992 97.005 27.8643C97.3205 28.0113 97.643 28.1615 97.8343 28.3509C99.1041 29.6082 99.6777 31.7036 99.8061 33.4262C99.9155 34.8903 99.6618 36.0324 99.3807 37.2973C99.2846 37.7306 99.1853 38.178 99.0962 38.6577C99.0268 39.0317 98.9509 39.2098 98.9118 39.3015C98.8905 39.3514 98.8802 39.3756 98.8876 39.392C98.8947 39.4077 98.9179 39.416 98.9637 39.4321C99.0578 39.4656 99.2477 39.5329 99.5865 39.7695C100.266 40.2435 100.735 40.5752 101.175 41.3194C102.096 42.8754 102.328 44.7098 102.176 46.483C102.063 47.7949 101.623 48.9084 101.178 50.0342C100.872 50.8072 100.565 51.5858 100.359 52.4381C102.234 52.4381 104.225 52.8375 106.117 53.2169C106.572 53.3082 107.02 53.3982 107.46 53.4811C108.08 53.5983 108.597 53.8808 109.124 54.1695H109.125H109.125C109.311 54.2712 109.498 54.3735 109.691 54.4696C110.095 54.6702 110.434 54.7593 110.781 54.8503C110.986 54.9041 111.193 54.9584 111.418 55.0369L111.459 55.0513C112.147 55.2911 112.438 55.3928 112.671 55.316C112.842 55.2595 112.981 55.1066 113.223 54.8407C113.331 54.7223 113.459 54.5814 113.62 54.4165C117.682 50.2497 123.464 47.734 129.295 47.816C132.547 47.8612 135.693 48.2905 138.733 49.4613L138.901 49.5256C140.116 49.9928 141.444 50.5029 142.513 51.2301C143.787 52.0975 143.994 52.1017 145.629 52.1357L145.712 52.1374C151.912 52.2661 157.928 55.5961 162.44 59.6321C162.777 57.3694 165.904 55.8637 168.165 54.7752C168.609 54.5614 169.02 54.3637 169.37 54.1795C169.506 54.1076 169.641 54.042 169.771 53.9784C170.337 53.7027 170.833 53.4615 171.123 52.8779C171.319 52.4858 171.394 51.852 171.466 51.2345V51.2343C171.518 50.7932 171.569 50.3608 171.663 50.0308C172.074 48.5765 172.549 46.7971 172.511 45.2634C172.458 43.0121 172.167 40.7663 171.876 38.519C171.593 36.3338 171.31 34.1471 171.245 31.9529C171.236 31.6801 171.223 31.3993 171.209 31.1143C171.166 30.2317 171.121 29.3107 171.233 28.4741C171.264 28.2437 171.314 28.0358 171.361 27.8401C171.497 27.2772 171.608 26.8132 171.174 26.2009C170.718 25.5568 170.102 25.1114 169.489 24.6666C168.609 24.0299 167.732 23.3949 167.327 22.1803C166.217 18.8564 168.123 15.4575 170.726 13.4804C171.28 13.0597 171.83 12.7615 172.363 12.4721C173.272 11.979 174.134 11.5113 174.891 10.5056C175.292 9.9726 175.67 9.40337 176.049 8.83169C176.694 7.86128 177.344 6.8833 178.12 6.06088C178.494 5.66411 178.857 5.21841 179.223 4.76807H179.223V4.76783C179.868 3.97477 180.525 3.16703 181.281 2.58557C182.496 1.65064 184.28 1.01879 185.731 0.574559C189.214 -0.491983 193.491 -0.237333 195.942 2.7414C198.44 5.77835 194.759 10.0726 192.672 12.1918C192.127 12.7458 191.631 13.3464 191.136 13.9474C190.711 14.4621 190.286 14.9773 189.83 15.4638C189.367 15.957 188.848 16.4005 188.337 16.8374H188.336C187.768 17.3237 187.208 17.8016 186.745 18.3315C186.612 18.4839 186.476 18.6385 186.338 18.795H186.338C185.522 19.7222 184.647 20.7153 183.987 21.7319C183.862 21.925 183.722 22.1233 183.578 22.3269C183.16 22.9176 182.713 23.5495 182.533 24.1994C182.316 24.9822 182.347 24.9957 182.513 25.0664C182.613 25.1089 182.762 25.1728 182.936 25.4404C183.027 25.5808 183.107 25.6958 183.177 25.7968C183.468 26.2183 183.596 26.4034 183.725 27.219C183.88 28.2019 184.1 28.9213 184.631 29.7611C184.81 30.0448 184.993 30.3252 185.175 30.6048L185.175 30.605L185.176 30.606L185.177 30.6075L185.178 30.6092C185.882 31.6907 186.578 32.7604 187.068 33.9744C187.718 35.5889 188.218 37.2232 188.724 38.8751L188.724 38.8754V38.8756V38.8759L188.724 38.8761V38.8764C188.855 39.3054 188.987 39.7355 189.121 40.1665C189.194 40.3991 189.26 40.6413 189.326 40.8861L189.327 40.8869L189.327 40.8879L189.327 40.8888C189.494 41.5023 189.665 42.1325 189.958 42.6694C190.532 43.7193 190.622 43.6508 191.45 43.0153L191.494 42.9818C192.147 42.4813 192.801 41.9737 193.458 41.4642L193.46 41.463C195.415 39.9478 197.393 38.414 199.416 36.9962C200.965 35.9106 202.575 34.8475 204.21 33.8964C204.389 33.7922 204.6 33.6753 204.832 33.5471C206.054 32.8717 207.832 31.8886 208.305 30.8702C208.609 30.2129 208.595 29.5779 208.582 28.9556C208.562 28.0563 208.543 27.1838 209.486 26.3095C210.525 25.346 212.219 24.8117 213.573 24.5776C214.986 24.3335 216.508 24.5272 217.977 24.7139C218.498 24.7802 219.012 24.8455 219.512 24.8902C221.444 25.0629 223.334 24.8748 225.229 24.4795C225.894 24.3408 226.699 24.0583 227.567 23.7532H227.567C230.49 22.7268 234.134 21.4472 235.583 24.5485C236.227 25.9215 236.028 27.4103 235.838 28.855C235.784 29.2626 235.73 29.6667 235.696 30.0637C235.561 31.6361 235.099 33.3056 234.12 34.5992C233.188 35.8299 231.902 36.0894 230.519 36.3685H230.518C230.24 36.4245 229.959 36.4813 229.675 36.5471C228.655 36.7831 227.621 36.9426 226.586 37.1024C225.591 37.256 224.597 37.4094 223.614 37.631C222.626 37.8536 221.652 37.962 220.638 38.0087C220.222 38.028 219.72 37.9605 219.223 37.8935C218.643 37.8154 218.069 37.7381 217.643 37.8003C217.206 37.8639 217.11 38.051 217.002 38.2609C216.925 38.4121 216.841 38.5747 216.621 38.7122C216.509 38.7822 216.335 38.7893 216.176 38.7954C216.033 38.8013 215.901 38.8064 215.837 38.8575C215.504 39.1259 215.386 39.3629 215.166 39.8066L215.162 39.8132L215.16 39.8174L215.157 39.824L215.123 39.8923L215.098 39.9426C214.424 41.289 213.475 42.608 212.567 43.872C212.331 44.2005 212.097 44.5251 211.872 44.8456C211.803 44.9441 211.733 45.0444 211.662 45.1462L211.603 45.2308C211.547 45.3106 211.491 45.3911 211.435 45.4723C210.622 46.6406 209.72 47.938 208.805 48.9248C207.331 50.5166 205.885 52.2123 204.438 53.908L204.437 53.9087C203.633 54.851 202.83 55.7933 202.021 56.7174C200.869 58.034 199.488 59.4347 198.15 60.5663C198.008 60.6866 197.816 60.8028 197.616 60.9234V60.9237C197.236 61.1531 196.83 61.3985 196.691 61.7192C196.473 62.2243 196.843 63.1688 197.136 63.9173C197.247 64.202 197.348 64.4587 197.401 64.6517C197.619 65.453 197.747 66.2671 197.874 67.0788C198.012 67.9548 198.149 68.8281 198.399 69.6798C198.86 71.2491 199.028 72.9604 199.13 74.5964C199.202 75.7491 199.301 76.8834 199.4 78.0106V78.0121V78.0123C199.616 80.5006 199.83 82.9551 199.749 85.5008C199.646 88.6914 199.529 91.7511 198.421 94.884C197.413 97.7352 194.391 100.839 191.582 101.89C189.909 102.516 188.355 103.084 186.672 103.423L186.359 103.486C184.791 103.802 183.155 104.131 181.608 104.573C178.546 105.448 175.318 106.058 172.138 106.358C168.067 106.741 163.821 106.778 159.761 106.637C157.91 106.573 156.007 106.569 154.18 106.575C152.914 106.578 151.697 106.746 150.464 106.917C149.853 107.001 149.237 107.086 148.61 107.152C145.25 107.504 141.794 107.537 138.339 107.569C134.926 107.602 131.514 107.634 128.196 107.975C127.089 108.088 125.982 108.237 124.873 108.386H124.873H124.872C122.678 108.682 120.476 108.978 118.246 109.004C116.563 109.023 114.866 108.969 113.182 108.916C111.861 108.874 110.547 108.833 109.255 108.827C109.053 108.826 108.856 108.829 108.663 108.832C107.965 108.842 107.309 108.851 106.579 108.683C106.438 108.651 106.279 108.591 106.114 108.529L106.114 108.529C105.706 108.375 105.255 108.204 104.902 108.385C104.605 108.536 104.357 109.023 104.145 109.441C104.048 109.633 103.958 109.81 103.873 109.934C103.287 110.802 102.572 111.499 101.817 112.219C98.8196 115.075 95.8497 116.037 91.9164 117.084C90.1106 117.565 89.2192 117.816 87.7031 118.916C86.4682 119.811 85.2185 120.455 83.797 120.983C81.0088 122.019 77.7209 121.218 75.1005 120.319C74.7038 120.183 74.3009 120.051 73.8948 119.918C73.0015 119.625 72.0929 119.327 71.2018 118.972C70.2977 118.612 69.4745 118.129 68.6526 117.648C67.8696 117.19 67.0878 116.732 66.2385 116.381C66.3644 117.553 65.6093 118.233 64.8813 118.889C64.4552 119.273 64.0386 119.649 63.8131 120.109C63.6183 120.507 63.578 121.017 63.5364 121.541C63.4938 122.079 63.45 122.631 63.2367 123.093C62.8463 123.938 62.2428 124.738 61.3015 124.959C60.019 125.26 57.7262 123.833 56.8252 123.001C56.6261 122.817 56.4356 122.511 56.2396 122.196C55.9434 121.721 55.6349 121.226 55.266 121.103C54.7254 120.921 53.88 121.404 53.1557 121.818C52.8098 122.016 52.4913 122.197 52.2472 122.284C48.629 123.561 44.9624 124.163 41.0776 123.654C37.5064 123.187 34.2053 121.993 30.8672 120.785H30.867C30.5257 120.662 30.1842 120.539 29.8418 120.416C22.6125 117.82 16.3199 113.547 10.6591 108.402C10.5596 108.311 10.446 108.224 10.3302 108.135C10.0794 107.942 9.81855 107.742 9.66996 107.485C9.56605 107.305 9.52402 106.992 9.48692 106.715C9.45629 106.487 9.42899 106.283 9.37295 106.201C9.07079 105.755 8.64545 105.739 8.1213 105.719H8.12103C8.00535 105.714 7.88485 105.71 7.75978 105.701C5.62254 105.539 3.92476 105.023 2.26817 103.591C-0.339181 101.336 -1.30369 96.0801 2.69327 94.6841C3.71495 94.327 4.83944 94.256 5.89561 94.4759C6.07159 94.5126 6.44092 94.6949 6.84593 94.8945H6.846C7.44361 95.1892 8.11893 95.5222 8.36563 95.483C8.81267 95.4118 8.87936 94.9815 8.941 94.5838C8.9659 94.4233 8.98995 94.268 9.03792 94.1437C9.46077 93.05 10.0558 92.0872 10.7731 91.1591C11.9653 89.6163 13.4181 88.0654 14.909 86.81C16.3622 85.5855 17.9476 84.9722 19.6512 84.3132C19.8459 84.2379 20.0421 84.162 20.24 84.0845C21.5389 83.5757 24.0744 82.7019 25.4501 83.1571C27.2419 83.7501 26.3647 85.7083 25.2358 86.3932C24.4315 86.8812 23.5467 87.2256 22.6592 87.5713C21.7676 87.9184 20.873 88.2665 20.0543 88.7626C18.7174 89.5728 17.4667 90.6048 16.2365 91.6195C15.8074 91.9737 15.3808 92.3255 14.954 92.6653C14.337 93.1562 13.7585 93.7005 13.1805 94.2443C12.5142 94.871 11.8487 95.4972 11.1263 96.0398C10.7686 96.3084 10.1845 96.7783 10.0733 96.9268C10.0611 96.9429 10.0575 96.996 10.0527 97.0665C10.0423 97.2193 10.0263 97.4547 9.90534 97.5819C9.87975 97.6085 9.85522 97.6344 9.83163 97.6594L9.77048 97.724C9.48738 98.0236 9.34971 98.1694 9.18449 98.2147C9.02806 98.2575 8.84697 98.2103 8.4944 98.1183C8.38757 98.0904 8.26499 98.0584 8.1226 98.0236C6.72949 97.6829 3.40386 96.9121 2.4646 98.6394C1.63693 100.161 4.93619 101.535 6.14089 102.037L6.2153 102.068C7.60247 102.647 8.1054 103.228 8.92104 104.17C9.08603 104.36 9.2638 104.566 9.46429 104.789C10.3235 105.745 11.5827 106.486 12.7864 107.194C13.2926 107.492 13.789 107.784 14.2419 108.084C16.7375 109.737 19.467 111.028 22.1783 112.31L22.1791 112.31L22.1803 112.311C23.0589 112.726 23.9357 113.141 24.8019 113.567C28.226 115.249 31.9054 116.463 35.4749 117.641L35.5382 117.661C37.7051 118.376 40.3019 119.143 42.5762 119.364C44.8678 119.586 47.0167 119.212 49.265 118.775C50.164 118.6 50.8428 118.466 51.7831 118.134C51.937 118.08 52.1271 118.043 52.322 118.004C52.6572 117.939 53.0072 117.87 53.2174 117.706C53.5809 117.424 53.5814 117.182 53.5823 116.823C53.5826 116.673 53.5828 116.503 53.6097 116.302C53.9395 113.825 55.4153 115.676 56.4385 116.959C56.6545 117.23 56.8504 117.476 57.0112 117.65C57.1577 117.808 57.3035 117.975 57.4512 118.143L57.4517 118.144C58.0205 118.792 58.6144 119.469 59.3571 119.856C60.5293 120.468 60.7328 120.18 61.1171 119.171C61.2184 118.905 61.3106 118.634 61.4023 118.365C61.961 116.725 62.4897 115.174 64.8246 115.412C64.4187 115.065 64.0163 114.728 63.6183 114.394C61.9126 112.963 60.2864 111.599 58.7971 109.81C57.5899 108.361 56.4351 106.839 55.2849 105.323L55.2846 105.323L55.2834 105.321C54.7076 104.562 54.1327 103.804 53.553 103.058C53.0867 102.458 52.6403 101.783 52.1858 101.097C51.2514 99.6846 50.2831 98.2213 49.0393 97.2484C48.4549 96.7912 46.6782 95.7377 46.0018 95.7599C45.4906 95.7766 45.0082 96.2066 44.5155 96.646C44.0329 97.0765 43.5402 97.5161 43.0006 97.5841C41.7963 97.7362 41.2418 97.3157 40.8978 96.338C40.708 95.7981 40.8606 95.2149 41.0015 94.6763C41.1256 94.2027 41.2405 93.7636 41.1058 93.4184C41.0676 93.3208 40.9318 93.2142 40.7829 93.097C40.6185 92.9676 40.4377 92.8257 40.3545 92.6694C40.1163 92.2218 40.0991 91.633 40.1703 91.1374C40.2117 90.8504 40.2762 90.6293 40.3367 90.4228V90.4226C40.4318 90.0967 40.5165 89.8071 40.4825 89.3516C40.4609 89.0654 40.4049 88.8047 40.3506 88.551C40.2408 88.0385 40.1373 87.5552 40.3372 86.95C40.5461 86.3164 41.0446 85.8736 41.5319 85.4411C41.7753 85.2249 42.0157 85.0114 42.2163 84.7777C42.9852 83.881 42.7733 83.1706 42.4688 82.1498V82.1496C42.4125 81.9614 42.3533 81.7628 42.2963 81.5505C41.8876 80.0253 41.4436 78.5094 40.9991 76.9932C40.593 75.6069 40.1867 74.2204 39.8076 72.8269C39.0678 73.061 38.3347 73.3078 37.6023 73.5541L37.6016 73.5543L37.6011 73.5546H37.6008L37.5991 73.5553C36.5248 73.9169 35.4516 74.2779 34.3609 74.5979C33.9196 74.7275 33.4521 74.8538 32.9736 74.9829C31.5375 75.3707 30.0012 75.7853 28.7725 76.3983C28.5411 76.5138 28.3792 76.5771 28.2679 76.6207C28.1434 76.6693 28.0822 76.6933 28.0577 76.7376C28.0338 76.7804 28.0445 76.8425 28.0658 76.9648C28.0861 77.0835 28.1165 77.2589 28.1346 77.5287C28.1639 77.9734 28.2931 78.4511 28.4195 78.9179C28.4937 79.1919 28.5668 79.4622 28.6179 79.7195C28.6803 80.0326 28.7341 80.4663 28.7943 80.9519V80.9521C28.9812 82.4609 29.2305 84.4727 29.9922 84.9372C30.2444 85.0911 30.5602 85.0889 30.8914 85.0864C31.3606 85.0833 31.8604 85.0796 32.2535 85.5199C32.5861 85.8922 32.6639 86.3641 32.7415 86.8328C32.7953 87.1596 32.8491 87.4847 32.9885 87.7734C33.1038 88.0114 33.2774 88.1692 33.4531 88.3284C33.5994 88.461 33.7469 88.595 33.8623 88.7775C34.2938 89.4593 34.3374 90.053 34.3887 90.7562C34.4005 90.9182 34.4127 91.0857 34.4303 91.2616C34.4475 91.4353 34.4519 91.7103 34.4567 92.0239C34.4687 92.7802 34.4844 93.7614 34.6926 94.0865C34.9719 94.5229 35.4462 94.595 35.933 94.6692C36.1307 94.6993 36.3303 94.7296 36.5199 94.7849C38.1735 95.2663 39.6967 96.1039 41.1011 97.0804ZM47.7401 70.5079C47.4338 71.4663 46.0282 72.5504 44.9005 71.9739C43.4981 71.2571 43.3675 68.4301 43.752 67.2236C44.4035 65.1788 44.9512 67.8608 45.0661 68.6686C45.0811 68.773 45.0901 68.8699 45.0987 68.9594C45.1339 69.3344 45.1574 69.5817 45.5363 69.7236C45.7022 69.7857 45.9365 69.7601 46.1838 69.7329C46.4717 69.7013 46.7777 69.6678 47.015 69.7684C47.3939 69.9293 47.4573 70.0355 47.6398 70.3418C47.6694 70.3914 47.7022 70.4465 47.7401 70.5079ZM39.6471 64.4237C39.5832 65.7691 41.6833 69.9149 42.3107 66.9102C42.2601 66.0137 41.8032 64.4315 41.2085 63.7295C40.358 62.7263 39.7065 63.1825 39.6471 64.4237ZM45.1192 62.8014C45.1192 61.5002 45.9108 61.2429 46.8983 62.0854C47.9174 62.9545 48.2504 64.4063 48.356 65.6057C48.471 66.9061 48.174 67.4587 46.879 66.6231C45.7452 65.8914 45.1779 63.943 45.1192 62.8014ZM51.8531 72.2581C50.1041 72.126 48.0713 75.4125 50.2205 75.1554C51.0312 75.1035 52.653 74.5191 52.8901 73.5864C53.0774 72.8479 52.5654 72.3122 51.8531 72.2581ZM65.1411 58.9904C65.0428 57.6345 67.1303 56.9263 67.4006 58.3637C67.6553 59.7206 64.6506 61.1152 65.1411 58.9904ZM32.1099 79.6006C32.1223 77.8973 30.0414 75.1507 29.2977 77.9277C29.4039 78.7711 29.7557 80.9998 30.9166 81.1904C31.8464 81.343 32.104 80.3484 32.1099 79.6006Z" fill="black"/>
</svg>
